<?xml version="1.0" encoding="UTF-8" standalone="no"?>
<!-- Created with Inkscape (http://www.inkscape.org/) -->

<svg
   width="8.2424717mm"
   height="8.2424698mm"
   viewBox="0 0 8.2424717 8.2424698"
   version="1.1"
   id="svg131"
   inkscape:version="1.1 (c4e8f9e, 2021-05-24)"
   sodipodi:docname="app-icon.svg"
   xmlns:inkscape="http://www.inkscape.org/namespaces/inkscape"
   xmlns:sodipodi="http://sodipodi.sourceforge.net/DTD/sodipodi-0.dtd"
   xmlns="http://www.w3.org/2000/svg"
   xmlns:svg="http://www.w3.org/2000/svg">
  <sodipodi:namedview
     id="namedview133"
     pagecolor="#ffffff"
     bordercolor="#666666"
     borderopacity="1.0"
     inkscape:pageshadow="2"
     inkscape:pageopacity="0.0"
     inkscape:pagecheckerboard="0"
     inkscape:document-units="mm"
     showgrid="false"
     inkscape:zoom="3.4977444"
     inkscape:cx="78.479149"
     inkscape:cy="23.300731"
     inkscape:window-width="1312"
     inkscape:window-height="847"
     inkscape:window-x="73"
     inkscape:window-y="174"
     inkscape:window-maximized="0"
     inkscape:current-layer="layer1"
     fit-margin-top="0"
     fit-margin-left="0"
     fit-margin-right="0"
     fit-margin-bottom="0" />
  <defs
     id="defs128" />
  <g
     inkscape:label="Layer 1"
     inkscape:groupmode="layer"
     id="layer1"
     transform="translate(-90.96614,-144.93956)">
    <path
       d="m 97.026783,151.18007 c 0.1733,-0.0847 0.31274,-0.17542 0.41857,-0.27358 0.10584,-0.0984 0.18786,-0.19791 0.24607,-0.29898 0.0587,-0.10054 0.0979,-0.19897 0.11773,-0.29554 0.0201,-0.0966 0.0299,-0.18627 0.0299,-0.26882 0,-0.12858 -0.0283,-0.21775 -0.0852,-0.26723 -0.0566,-0.0497 -0.1397,-0.0741 -0.24871,-0.0741 h -0.889 c -0.0926,0 -0.16933,-0.009 -0.23125,-0.0275 -0.0619,-0.0185 -0.11112,-0.0445 -0.14869,-0.0794 -0.037,-0.0344 -0.0635,-0.0767 -0.0794,-0.12621 -0.0159,-0.0495 -0.0233,-0.10583 -0.0233,-0.16827 0,-0.127 0.003,-0.23019 0.009,-0.30824 0.005,-0.0783 0.0169,-0.14605 0.0344,-0.20294 0.0172,-0.0572 0.0413,-0.11059 0.0714,-0.16139 0.0307,-0.0503 0.0714,-0.10981 0.12277,-0.17913 0.008,-0.01 0.0132,-0.0175 0.0148,-0.0233 0.002,-0.006 0.003,-0.0106 0.003,-0.0132 0,-0.0169 -0.01,-0.0331 -0.0286,-0.0487 -0.0185,-0.0159 -0.0466,-0.0376 -0.0828,-0.0656 -0.063,-0.0495 -0.11509,-0.0958 -0.1561,-0.13864 -0.0415,-0.0429 -0.0622,-0.0865 -0.0622,-0.13123 0,-0.0246 0.009,-0.0537 0.0273,-0.0865 0.0185,-0.0331 0.0418,-0.0683 0.0707,-0.10531 0.0291,-0.037 0.0619,-0.0754 0.0989,-0.11509 0.037,-0.0397 0.0741,-0.0783 0.11245,-0.11642 0.0148,0 0.0323,0.003 0.0519,0.01 0.0201,0.007 0.037,0.014 0.0497,0.0225 -0.006,0.0312 -0.009,0.0572 -0.007,0.0778 0.002,0.0206 0.009,0.0405 0.0212,0.0595 0.0124,0.0193 0.0318,0.0392 0.0569,0.0598 0.0257,0.0206 0.0598,0.0476 0.10319,0.0804 0.0688,0.0529 0.11773,0.0947 0.14552,0.12621 0.0283,0.0317 0.0423,0.0627 0.0423,0.0942 0,0.0246 -0.007,0.0516 -0.0222,0.0804 -0.0145,0.0291 -0.0336,0.0582 -0.0569,0.0878 -0.023,0.0291 -0.049,0.0601 -0.0778,0.0913 -0.0291,0.0318 -0.0571,0.0619 -0.0852,0.0916 -0.028,0.0302 -0.0503,0.0582 -0.0669,0.0857 -0.0164,0.0273 -0.0296,0.0561 -0.0397,0.0868 -0.01,0.0304 -0.0164,0.0643 -0.0199,0.10133 -0.003,0.037 -0.005,0.0794 -0.005,0.12753 0,0.0529 0.003,0.0963 0.01,0.13018 0.006,0.0336 0.0201,0.0603 0.0408,0.0802 0.0206,0.0198 0.0503,0.0333 0.0889,0.0407 0.0389,0.007 0.09,0.0111 0.1524,0.0111 h 0.84931 c 0.10213,0 0.18971,0.0159 0.26247,0.0468 0.0725,0.0317 0.13229,0.0741 0.17833,0.12753 0.046,0.0534 0.0799,0.11535 0.10133,0.1852 0.0212,0.0704 0.0323,0.145 0.0323,0.22437 0,0.15346 -0.0251,0.32147 -0.0757,0.50377 -0.0503,0.18256 -0.12435,0.36592 -0.22384,0.55086 -0.099,0.18521 -0.22066,0.36433 -0.36512,0.53869 -0.14447,0.1741 -0.31062,0.33073 -0.49874,0.46911 -0.0384,-0.005 -0.0722,-0.014 -0.10187,-0.0272 0.0148,-0.0942 0.0326,-0.19236 0.0529,-0.29475 0.0212,-0.10213 0.0429,-0.20055 0.0662,-0.29448 m -1.59968,0.62627 c -0.004,-0.0331 -0.007,-0.0794 -0.01,-0.1397 -0.003,-0.0603 -0.007,-0.12489 -0.0101,-0.19315 -0.003,-0.0688 -0.006,-0.13758 -0.007,-0.2069 -0.002,-0.0693 -0.003,-0.12859 -0.003,-0.17833 0,-0.16986 0.003,-0.31565 0.008,-0.43656 0.005,-0.12171 0.0106,-0.22755 0.0169,-0.31856 l 0.0175,-0.23998 c 0.005,-0.0693 0.007,-0.13705 0.007,-0.2032 0,-0.0246 -0.006,-0.045 -0.0175,-0.0608 -0.0114,-0.0154 -0.0273,-0.0286 -0.0471,-0.0397 -0.0196,-0.0106 -0.0423,-0.019 -0.068,-0.0257 -0.02567,-0.007 -0.0516,-0.014 -0.07805,-0.0222 -0.06429,-0.0185 -0.122502,-0.0352 -0.174625,-0.0508 -0.05186,-0.0159 -0.09684,-0.0339 -0.134938,-0.0545 -0.03784,-0.0206 -0.0672,-0.045 -0.08784,-0.073 -0.02064,-0.028 -0.03096,-0.0627 -0.03096,-0.10398 0,-0.0233 0.0053,-0.0569 0.01587,-0.10054 0.01058,-0.0437 0.02487,-0.0908 0.04233,-0.14103 0.0172,-0.0503 0.03651,-0.10054 0.05821,-0.15001 0.02117,-0.0495 0.0418,-0.0916 0.06165,-0.12621 0.01323,-0.008 0.03096,-0.0127 0.05292,-0.0132 0.02275,-0.001 0.04286,0 0.06085,0.003 0.01005,0.0397 0.02381,0.0722 0.04101,0.0979 0.01746,0.0254 0.04101,0.0476 0.07064,0.0654 0.02963,0.0185 0.06615,0.0339 0.109003,0.0471 0.0429,0.0132 0.0952,0.0283 0.15822,0.045 0.0564,0.0148 0.1024,0.0291 0.13865,0.0423 0.0362,0.0127 0.0643,0.0265 0.0841,0.0405 0.0198,0.014 0.0333,0.0291 0.0407,0.0458 0.007,0.0167 0.0111,0.0344 0.0111,0.0545 0,0.0132 -0.003,0.0352 -0.007,0.0656 -0.005,0.0307 -0.01,0.0635 -0.0148,0.0979 -0.008,0.0561 -0.0169,0.12435 -0.0259,0.20425 -0.009,0.0799 -0.0138,0.18204 -0.0138,0.3056 0,0.1733 0.008,0.34554 0.0238,0.51594 0.0153,0.17118 0.0349,0.33416 0.0582,0.48948 l 0.027,0.19579 c 0.008,0.0609 0.0124,0.10795 0.0124,0.14076 0,0.0312 -0.004,0.0561 -0.0106,0.0741 -0.006,0.0185 -0.0169,0.037 -0.0318,0.0572 -0.0365,0.0476 -0.073,0.0974 -0.11033,0.14817 -0.037,0.0513 -0.0696,0.0984 -0.0979,0.14128 -0.046,0.005 -0.0915,0.005 -0.13599,0 m -3.146691,-2.86385 c 0.02117,0.0476 0.04418,0.0855 0.068,0.11272 0.02381,0.027 0.05159,0.0476 0.08308,0.0616 0.03175,0.014 0.06773,0.023 0.109008,0.0273 0.04127,0.004 0.08996,0.006 0.14605,0.006 h 1.166019 c 0.103981,0 0.191029,0.007 0.261408,0.022 0.07012,0.0151 0.126207,0.037 0.168275,0.0656 0.04233,0.0291 0.07197,0.0656 0.08943,0.10927 0.0172,0.0439 0.02593,0.0945 0.02593,0.1524 0,0.0556 -0.0087,0.11721 -0.02593,0.18415 -0.01746,0.0669 -0.03598,0.1397 -0.05556,0.21908 0,0.24421 0.01058,0.46196 0.03175,0.65246 0.0217,0.1905 0.04233,0.35851 0.06218,0.50376 l 0.02725,0.1905 c 0.0079,0.0582 0.01244,0.10319 0.01244,0.13627 0,0.0312 -0.0034,0.0561 -0.01005,0.0741 -0.0066,0.0185 -0.0172,0.037 -0.03228,0.0572 -0.0344,0.0476 -0.06747,0.0952 -0.09895,0.1434 -0.03175,0.0476 -0.06138,0.0966 -0.08943,0.14605 -0.04604,0.005 -0.09155,0.005 -0.135996,0 -0.0053,-0.0312 -0.01058,-0.0767 -0.01588,-0.13599 -0.0061,-0.0595 -0.01138,-0.12356 -0.0164,-0.19209 -0.0053,-0.0688 -0.009,-0.13653 -0.01243,-0.20426 -0.0034,-0.0677 -0.0053,-0.12621 -0.0053,-0.17568 0,-0.14367 5.29e-4,-0.26723 0.0013,-0.37148 7.94e-4,-0.10398 0.0021,-0.19261 0.0037,-0.26617 0.0013,-0.0733 0.0032,-0.13494 0.0048,-0.18441 0.0016,-0.0495 0.0032,-0.0926 0.0053,-0.12859 l 0.0034,-0.11906 c 0.0011,-0.0344 0.0013,-0.0741 0.0013,-0.11854 0,-0.0397 -0.0026,-0.0725 -0.0074,-0.099 -0.0048,-0.0265 -0.01588,-0.0476 -0.03334,-0.0643 -0.0172,-0.0167 -0.04313,-0.0283 -0.07779,-0.0344 -0.0344,-0.007 -0.08096,-0.0106 -0.138641,-0.0106 h -1.173163 c -0.0085,0.12911 -0.01376,0.25823 -0.01587,0.38788 -0.0026,0.12964 -0.004,0.25876 -0.004,0.38761 0,0.17013 0.0016,0.3392 0.0048,0.508 l 0.01005,0.51197 c 0,0.0151 -0.0013,0.0291 -0.0037,0.0423 -0.0026,0.0132 -0.0095,0.0238 -0.02117,0.0317 -0.02461,0.0201 -0.05106,0.0413 -0.07937,0.0635 l -0.08017,0.0643 c -0.0254,0.0206 -0.04948,0.0405 -0.07144,0.0595 -0.02249,0.019 -0.04101,0.0349 -0.05556,0.0481 -0.04154,0.005 -0.08202,0.005 -0.121709,0 0.01667,-0.35454 0.03625,-0.70749 0.05953,-1.05833 0.02302,-0.35084 0.06271,-0.70035 0.119063,-1.04855 -0.04815,-0.003 -0.0926,-0.009 -0.132821,-0.0159 -0.04048,-0.008 -0.07541,-0.0201 -0.105039,-0.037 -0.0299,-0.0177 -0.05292,-0.0413 -0.06932,-0.0709 -0.0172,-0.0299 -0.02514,-0.0683 -0.02514,-0.11589 0,-0.0151 0.0032,-0.0392 0.0098,-0.0722 0.0066,-0.0328 0.01588,-0.0714 0.02858,-0.11642 0.01243,-0.0445 0.02725,-0.0934 0.04445,-0.1471 0.01746,-0.0534 0.03598,-0.10742 0.05556,-0.16193 0.01667,-0.008 0.03492,-0.014 0.05477,-0.0172 0.01984,-0.003 0.03889,-0.004 0.05689,-0.003 z"
       fill-rule="evenodd"
       fill="#941003"
       id="path101"
       style="stroke-width:0.264583" />
    <path
       d="m 92.76918,144.93956 a 0.25757715,0.25757715 0 0 1 0.257577,0.25757 v 0.25759 h 4.121235 v -0.25759 a 0.25757715,0.25757715 0 0 1 0.515154,0 v 0.25759 h 0.515156 a 1.0303086,1.0303086 0 0 1 1.03031,1.0303 v 5.66668 a 1.0303086,1.0303086 0 0 1 -1.03031,1.03033 H 91.996449 A 1.0303086,1.0303086 0 0 1 90.96614,152.1517 v -5.66668 a 1.0303086,1.0303086 0 0 1 1.030309,-1.0303 h 0.515154 v -0.25759 a 0.25757715,0.25757715 0 0 1 0.257577,-0.25757 z m -1.287885,2.06062 v 5.15152 a 0.51515433,0.51515433 0 0 0 0.515154,0.5152 h 6.181853 a 0.51515433,0.51515433 0 0 0 0.515153,-0.5152 v -5.15152 z"
       id="path9"
       style="stroke-width:0.515154" />
  </g>
</svg>
