<?xml version="1.0" encoding="UTF-8" standalone="no"?>
<svg
   width="7.7499995mm"
   height="7.75mm"
   viewBox="0 0 7.7499995 7.75"
   version="1.1"
   id="svg418"
   sodipodi:docname="luach-and-hebcal.svg"
   inkscape:version="1.1 (c4e8f9e, 2021-05-24)"
   inkscape:export-filename="/Users/mradwin/Downloads/hebcal-172.png"
   inkscape:export-xdpi="563.71997"
   inkscape:export-ydpi="563.71997"
   xmlns:inkscape="http://www.inkscape.org/namespaces/inkscape"
   xmlns:sodipodi="http://sodipodi.sourceforge.net/DTD/sodipodi-0.dtd"
   xmlns="http://www.w3.org/2000/svg"
   xmlns:svg="http://www.w3.org/2000/svg"
   xmlns:rdf="http://www.w3.org/1999/02/22-rdf-syntax-ns#"
   xmlns:cc="http://creativecommons.org/ns#">
  <defs
     id="defs422" />
  <sodipodi:namedview
     id="namedview420"
     pagecolor="#f9f9f9"
     bordercolor="#343422"
     borderopacity="1"
     inkscape:pageshadow="2"
     inkscape:pageopacity="0"
     inkscape:pagecheckerboard="true"
     inkscape:document-units="mm"
     showgrid="false"
     inkscape:zoom="14.808784"
     inkscape:cx="7.8331887"
     inkscape:cy="20.764703"
     inkscape:window-width="1809"
     inkscape:window-height="1065"
     inkscape:window-x="363"
     inkscape:window-y="233"
     inkscape:window-maximized="0"
     inkscape:current-layer="svg418"
     fit-margin-top="0"
     fit-margin-left="0"
     fit-margin-right="0"
     fit-margin-bottom="0"
     inkscape:showpageshadow="true"
     showborder="true"
     lock-margins="true"
     borderlayer="false" />
  <rect
     style="fill:#f9f9f9;stroke:#f9f9f9;stroke-width:0.103146;stroke-opacity:0"
     id="rect531"
     width="8.1468544"
     height="8.1468544"
     x="-0.19842699"
     y="-0.19842699" />
  <g
     id="layer1"
     transform="translate(-97.325936,-89.568128)">
    <path
       d="m 103.14235,93.661975 c 0.1733,-0.0847 0.31273,-0.17542 0.41857,-0.27358 0.10583,-0.0984 0.18785,-0.19791 0.24606,-0.29898 0.0587,-0.10054 0.0979,-0.19897 0.11774,-0.29554 0.0201,-0.0966 0.0299,-0.18627 0.0299,-0.26882 0,-0.12858 -0.0283,-0.21775 -0.0852,-0.26723 -0.0566,-0.0497 -0.1397,-0.0741 -0.24871,-0.0741 h -0.889 c -0.0926,0 -0.16933,-0.009 -0.23125,-0.0275 -0.0619,-0.0185 -0.11112,-0.0444 -0.14869,-0.0794 -0.037,-0.0344 -0.0635,-0.0767 -0.0794,-0.12621 -0.0159,-0.0495 -0.0233,-0.10583 -0.0233,-0.16827 0,-0.127 0.003,-0.23019 0.009,-0.30824 0.005,-0.0783 0.0169,-0.14605 0.0344,-0.20294 0.0172,-0.0572 0.0413,-0.11059 0.0714,-0.16139 0.0307,-0.0503 0.0714,-0.10981 0.12277,-0.17913 0.008,-0.01 0.0132,-0.0175 0.0148,-0.0233 0.002,-0.006 0.003,-0.0106 0.003,-0.0132 0,-0.0169 -0.01,-0.0331 -0.0286,-0.0487 -0.0185,-0.0159 -0.0466,-0.0376 -0.0828,-0.0656 -0.063,-0.0495 -0.1151,-0.0958 -0.15611,-0.13864 -0.0415,-0.0429 -0.0622,-0.0865 -0.0622,-0.13123 0,-0.0246 0.009,-0.0537 0.0272,-0.0865 0.0185,-0.0331 0.0418,-0.0683 0.0706,-0.10531 0.0291,-0.037 0.0619,-0.0754 0.099,-0.11509 0.037,-0.0397 0.0741,-0.0783 0.11245,-0.11642 0.0148,0 0.0323,0.003 0.0519,0.01 0.0201,0.007 0.037,0.014 0.0497,0.0225 -0.006,0.0312 -0.009,0.0571 -0.007,0.0778 0.002,0.0206 0.009,0.0405 0.0212,0.0595 0.0124,0.0193 0.0318,0.0392 0.0569,0.0598 0.0257,0.0206 0.0598,0.0476 0.10319,0.0804 0.0688,0.0529 0.11774,0.0947 0.14552,0.12621 0.0283,0.0318 0.0423,0.0627 0.0423,0.0942 0,0.0246 -0.007,0.0516 -0.0222,0.0804 -0.0145,0.0291 -0.0336,0.0582 -0.0569,0.0878 -0.023,0.0291 -0.049,0.0601 -0.0778,0.0913 -0.0291,0.0318 -0.0572,0.0619 -0.0852,0.0915 -0.0281,0.0302 -0.0503,0.0582 -0.0669,0.0857 -0.0164,0.0272 -0.0296,0.0561 -0.0397,0.0868 -0.01,0.0304 -0.0164,0.0643 -0.0198,0.10133 -0.003,0.037 -0.005,0.0794 -0.005,0.12753 0,0.0529 0.003,0.0963 0.01,0.13018 0.006,0.0336 0.0201,0.0603 0.0408,0.0802 0.0206,0.0198 0.0503,0.0333 0.0889,0.0407 0.0389,0.007 0.09,0.0111 0.1524,0.0111 h 0.84931 c 0.10213,0 0.18971,0.0159 0.26247,0.0468 0.0725,0.0318 0.13229,0.0741 0.17833,0.12753 0.046,0.0534 0.0799,0.11535 0.10133,0.1852 0.0212,0.0704 0.0323,0.145 0.0323,0.22437 0,0.15346 -0.0251,0.32147 -0.0757,0.50377 -0.0503,0.18256 -0.12435,0.36592 -0.22384,0.55086 -0.0989,0.18521 -0.22066,0.36433 -0.36512,0.53869 -0.14446,0.1741 -0.31062,0.33073 -0.49874,0.46911 -0.0384,-0.005 -0.0722,-0.014 -0.10187,-0.0273 0.0148,-0.0942 0.0325,-0.19236 0.0529,-0.29475 0.0212,-0.10213 0.0429,-0.20055 0.0661,-0.29448 m -1.59967,0.62627 c -0.004,-0.0331 -0.007,-0.0794 -0.0101,-0.1397 -0.003,-0.0603 -0.007,-0.12489 -0.01,-0.19315 -0.003,-0.0688 -0.006,-0.13758 -0.007,-0.2069 -0.002,-0.0693 -0.003,-0.12859 -0.003,-0.17833 0,-0.16986 0.003,-0.31565 0.008,-0.43656 0.004,-0.12171 0.0106,-0.22755 0.0169,-0.31856 l 0.0175,-0.23998 c 0.005,-0.0693 0.007,-0.13705 0.007,-0.2032 0,-0.0246 -0.006,-0.045 -0.0175,-0.0609 -0.0114,-0.0153 -0.0272,-0.0286 -0.0471,-0.0397 -0.0196,-0.0106 -0.0423,-0.0191 -0.068,-0.0257 -0.0257,-0.007 -0.0516,-0.014 -0.0781,-0.0222 -0.0643,-0.0185 -0.1225,-0.0352 -0.17462,-0.0508 -0.0519,-0.0159 -0.0968,-0.0339 -0.13494,-0.0545 -0.0378,-0.0206 -0.0672,-0.045 -0.0878,-0.073 -0.0206,-0.0281 -0.031,-0.0627 -0.031,-0.10398 0,-0.0233 0.005,-0.0569 0.0159,-0.10054 0.0106,-0.0437 0.0249,-0.0908 0.0423,-0.14103 0.0172,-0.0503 0.0365,-0.10054 0.0582,-0.15001 0.0212,-0.0495 0.0418,-0.0916 0.0617,-0.12621 0.0132,-0.008 0.031,-0.0127 0.0529,-0.0132 0.0228,-0.001 0.0429,0 0.0609,0.003 0.01,0.0397 0.0238,0.0722 0.041,0.0979 0.0175,0.0254 0.041,0.0476 0.0706,0.0653 0.0296,0.0185 0.0661,0.0339 0.10901,0.0471 0.0429,0.0132 0.0952,0.0283 0.15822,0.045 0.0564,0.0148 0.10239,0.0291 0.13864,0.0423 0.0363,0.0127 0.0643,0.0264 0.0841,0.0405 0.0198,0.014 0.0333,0.0291 0.0408,0.0458 0.007,0.0167 0.0111,0.0344 0.0111,0.0545 0,0.0132 -0.003,0.0352 -0.007,0.0656 -0.005,0.0307 -0.01,0.0635 -0.0148,0.0979 -0.008,0.0561 -0.0169,0.12435 -0.0259,0.20425 -0.009,0.0799 -0.0138,0.18204 -0.0138,0.3056 0,0.1733 0.008,0.34554 0.0238,0.51594 0.0153,0.17118 0.0349,0.33416 0.0582,0.48948 l 0.027,0.19579 c 0.008,0.0609 0.0124,0.10795 0.0124,0.14076 0,0.0312 -0.004,0.0561 -0.0106,0.0741 -0.006,0.0185 -0.0169,0.037 -0.0318,0.0571 -0.0365,0.0476 -0.073,0.0974 -0.11033,0.14817 -0.037,0.0513 -0.0696,0.0984 -0.0979,0.14128 -0.046,0.005 -0.0915,0.005 -0.13599,0 m -3.146695,-2.86385 c 0.02117,0.0476 0.04418,0.0855 0.068,0.11272 0.02381,0.027 0.05159,0.0476 0.08308,0.0616 0.03175,0.014 0.06773,0.023 0.109008,0.0273 0.04127,0.004 0.08996,0.006 0.14605,0.006 h 1.166019 c 0.103978,0 0.191028,0.007 0.261408,0.022 0.0701,0.0151 0.12621,0.037 0.16828,0.0656 0.0423,0.0291 0.072,0.0656 0.0894,0.10927 0.0172,0.0439 0.0259,0.0945 0.0259,0.1524 0,0.0556 -0.009,0.11721 -0.0259,0.18415 -0.0175,0.0669 -0.036,0.1397 -0.0556,0.21908 0,0.24421 0.0106,0.46196 0.0317,0.65246 0.0217,0.1905 0.0423,0.35851 0.0622,0.50376 l 0.0272,0.1905 c 0.008,0.0582 0.0124,0.10319 0.0124,0.13627 0,0.0312 -0.003,0.0561 -0.01,0.0741 -0.007,0.0185 -0.0172,0.037 -0.0323,0.0571 -0.0344,0.0476 -0.0675,0.0953 -0.099,0.1434 -0.0318,0.0476 -0.0614,0.0966 -0.0894,0.14605 -0.046,0.005 -0.0915,0.005 -0.136,0 -0.005,-0.0312 -0.0106,-0.0767 -0.0159,-0.13599 -0.006,-0.0595 -0.0114,-0.12356 -0.0164,-0.19209 -0.005,-0.0688 -0.009,-0.13653 -0.0124,-0.20426 -0.003,-0.0677 -0.005,-0.12621 -0.005,-0.17568 0,-0.14367 5.3e-4,-0.26723 0.001,-0.37148 7.9e-4,-0.10398 0.002,-0.19261 0.004,-0.26617 10e-4,-0.0733 0.003,-0.13494 0.005,-0.18441 0.002,-0.0495 0.003,-0.0926 0.005,-0.12859 l 0.003,-0.11906 c 0.001,-0.0344 0.001,-0.0741 0.001,-0.11854 0,-0.0397 -0.003,-0.0725 -0.007,-0.099 -0.005,-0.0265 -0.0159,-0.0476 -0.0333,-0.0643 -0.0172,-0.0167 -0.0431,-0.0283 -0.0778,-0.0344 -0.0344,-0.007 -0.08096,-0.0106 -0.138642,-0.0106 h -1.173163 c -0.0085,0.12911 -0.01376,0.25823 -0.01588,0.38788 -0.0026,0.12964 -0.004,0.25876 -0.004,0.38761 0,0.17013 0.0016,0.3392 0.0048,0.508 l 0.01005,0.51197 c 0,0.0151 -0.0013,0.0291 -0.0037,0.0423 -0.0026,0.0132 -0.0095,0.0238 -0.02117,0.0318 -0.02461,0.0201 -0.05106,0.0413 -0.07937,0.0635 l -0.08017,0.0643 c -0.0254,0.0206 -0.04948,0.0405 -0.07144,0.0595 -0.02249,0.019 -0.04101,0.0349 -0.05556,0.0481 -0.04154,0.005 -0.08202,0.005 -0.121709,0 0.01667,-0.35454 0.03625,-0.70749 0.05953,-1.05833 0.02302,-0.35084 0.06271,-0.70035 0.119063,-1.04855 -0.04815,-0.003 -0.0926,-0.009 -0.132821,-0.0159 -0.04048,-0.008 -0.07541,-0.0201 -0.105039,-0.037 -0.0299,-0.0177 -0.05292,-0.0413 -0.06932,-0.0709 -0.0172,-0.0299 -0.02514,-0.0683 -0.02514,-0.11589 0,-0.0151 0.0032,-0.0392 0.0098,-0.0722 0.0066,-0.0328 0.01587,-0.0714 0.02857,-0.11642 0.01244,-0.0444 0.02725,-0.0934 0.04445,-0.1471 0.01746,-0.0534 0.03598,-0.10742 0.05556,-0.16193 0.01667,-0.008 0.03493,-0.014 0.05477,-0.0172 0.01984,-0.003 0.03889,-0.004 0.05689,-0.003 z"
       fill-rule="evenodd"
       fill="#941003"
       id="path13"
       style="stroke-width:0.264583" />
  </g>
  <path
     d="M 0.91032745,6.6501388 V 6.5541567 L 1.0560412,6.5297883 V 5.4419079 L 0.91641956,5.418285 V 5.32193 H 1.4050332 V 5.418037 L 1.2558382,5.44166 V 5.9110019 H 1.871019 V 5.4416592 L 1.7296567,5.4180367 V 5.3219297 H 2.211308 v 0.096107 l -0.1396217,0.023623 v 1.088875 l 0.1394972,0.023622 v 0.096107 H 1.731273 V 6.5542814 L 1.8708946,6.5306593 V 6.0243901 H 1.2557139 v 0.5060197 l 0.149195,0.023622 v 0.096107 H 0.9100788 m 1.9134259,0.019893 c -0.073976,0 -0.1386268,-0.012681 -0.1942021,-0.038294 C 2.5737277,6.6062507 2.5273529,6.5704436 2.4900541,6.5244418 2.4527576,6.4784396 2.4249055,6.4237351 2.4063806,6.3599543 2.3877298,6.2961735 2.3784069,6.2261761 2.3784069,6.1498379 c 0,-0.077084 0.011686,-0.147703 0.034811,-0.2113595 0.023373,-0.063781 0.055948,-0.1184855 0.09735,-0.1641144 0.041652,-0.045629 0.09076,-0.081063 0.1479517,-0.1060527 0.056943,-0.024866 0.119356,-0.037547 0.1867423,-0.037547 0.1099071,0 0.1951969,0.029839 0.2556211,0.089517 0.060549,0.059678 0.093247,0.1479518 0.098593,0.2648212 7.518e-4,0.037795 5.169e-4,0.070868 -7.519e-4,0.098966 -0.00122,0.028347 -0.004,0.053213 -0.0087,0.074846 H 2.586154 v 0.00522 c 0.00249,0.066267 0.011936,0.123086 0.028842,0.1700824 0.016785,0.047245 0.038542,0.085787 0.065894,0.1156261 0.026982,0.029839 0.057937,0.051846 0.092749,0.065522 0.034811,0.013428 0.071365,0.020266 0.1090369,0.020266 0.025117,0 0.050353,-0.00223 0.075841,-0.00696 0.025737,-0.0046 0.050353,-0.010692 0.073852,-0.018277 0.023622,-0.00746 0.04513,-0.016163 0.064651,-0.026109 0.019398,-0.00995 0.035558,-0.019893 0.048489,-0.029839 l 0.036554,0.085787 C 3.1652779,6.556893 3.1438929,6.57318 3.1180339,6.58897 3.0921749,6.604635 3.0633289,6.618436 3.0317499,6.630372 3.0000449,6.642308 2.9664769,6.651881 2.9310434,6.659216 2.8954854,6.666426 2.8598024,6.670032 2.823623,6.670032 M 2.8018663,5.7355734 c -0.02897,0 -0.055948,0.00497 -0.081063,0.015168 -0.024867,0.010195 -0.046874,0.027601 -0.065894,0.05197 -0.0189,0.024493 -0.034313,0.057191 -0.046248,0.097723 -0.011814,0.04078 -0.019271,0.092004 -0.022133,0.1535465 h 0.4048166 c 0.00122,-0.011687 0.00188,-0.023871 0.00211,-0.036677 5.169e-4,-0.012806 6.109e-4,-0.024866 6.109e-4,-0.035807 0,-0.032574 -0.00348,-0.063657 -0.010442,-0.093247 -0.00697,-0.029839 -0.017904,-0.055948 -0.033072,-0.078701 -0.015169,-0.022628 -0.034811,-0.040656 -0.058932,-0.054083 -0.02412,-0.013428 -0.053835,-0.020142 -0.089517,-0.020142 M 3.4084619,6.600904 V 5.3219302 l -0.1429786,-0.015541 -2.482e-4,-0.082927 0.290557,-0.039288 h 0.00368 l 0.043516,0.029839 v 0.5346154 c 0.014919,-0.014422 0.032072,-0.028844 0.050971,-0.043018 0.018899,-0.014298 0.039784,-0.02698 0.062911,-0.038045 0.022879,-0.01119 0.04824,-0.019893 0.075844,-0.026607 0.027604,-0.00671 0.057442,-0.00995 0.089516,-0.00995 0.049978,0 0.098469,0.00908 0.145466,0.027352 0.047247,0.018401 0.088896,0.047245 0.1249509,0.086409 0.036052,0.039412 0.065025,0.08989 0.087031,0.1516815 0.021638,0.061543 0.032577,0.1357674 0.032577,0.2225492 0,0.07609 -0.011812,0.1477031 -0.035436,0.2150895 -0.023624,0.067138 -0.057442,0.1255725 -0.1015771,0.1753041 -0.04426,0.049732 -0.097971,0.088895 -0.1616277,0.1177398 -0.063408,0.028844 -0.1345246,0.043142 -0.2135974,0.043142 -0.043516,0 -0.085542,-0.00249 -0.1255724,-0.00746 -0.040289,-0.00497 -0.075844,-0.010941 -0.1074206,-0.018277 -0.031336,-0.00721 -0.057442,-0.01492 -0.078327,-0.022627 -0.021133,-0.00783 -0.034443,-0.014671 -0.04016,-0.020514 m 0.3926314,-0.83674 c -0.023375,0 -0.045133,0.00248 -0.065522,0.00821 -0.020388,0.00547 -0.038791,0.012682 -0.055447,0.021385 -0.016537,0.0087 -0.031336,0.018277 -0.044389,0.028596 -0.013181,0.010692 -0.024,0.020887 -0.032697,0.030709 v 0.6570796 c 0.00402,0.00995 0.011187,0.018649 0.021758,0.025736 0.010442,0.00746 0.023247,0.013428 0.038543,0.018276 0.014919,0.00497 0.031824,0.0087 0.050474,0.011439 0.018651,0.00249 0.038543,0.00373 0.059308,0.00373 0.041273,0 0.079319,-0.0087 0.1138855,-0.026109 0.034811,-0.017406 0.064649,-0.043515 0.08989,-0.078327 0.025241,-0.035061 0.045133,-0.078701 0.059676,-0.1310429 0.014551,-0.052212 0.022383,-0.1136309 0.023624,-0.1840012 0.00103,-0.065273 -0.00471,-0.1218426 -0.017401,-0.1703309 C 4.0299375,5.931766 4.0117832,5.891732 3.9886644,5.859655 3.9652888,5.8277022 3.9376935,5.8037069 3.9057329,5.7881657 3.8737809,5.7722513 3.8388417,5.7645428 3.801048,5.7645428 m 0.6220191,0.4040699 c 0,-0.072857 0.011187,-0.1417353 0.034066,-0.2063865 0.022622,-0.065024 0.055696,-0.1218426 0.098966,-0.1712012 0.043516,-0.04911 0.09648,-0.088274 0.1591421,-0.1168695 0.062911,-0.028844 0.1339023,-0.043267 0.2131001,-0.043267 0.029093,0 0.056945,0.00199 0.083676,0.00572 0.026859,0.00373 0.051724,0.0087 0.074595,0.014049 0.022999,0.0056 0.043516,0.011563 0.061542,0.017904 0.018026,0.00646 0.032945,0.012432 0.044509,0.017406 l -0.0087,0.2566154 H 5.0662175 l -0.039159,-0.144721 c -0.015167,-0.019893 -0.034194,-0.035061 -0.057194,-0.045753 -0.022999,-0.010816 -0.050971,-0.016163 -0.084292,-0.016163 -0.033073,0 -0.064649,0.00746 -0.094987,0.022627 -0.030334,0.015168 -0.057193,0.03792 -0.080817,0.068381 -0.023624,0.030709 -0.042275,0.068754 -0.056697,0.1143828 -0.014174,0.045753 -0.021638,0.09909 -0.022126,0.160136 -7.524e-4,0.078576 0.00693,0.1454651 0.022879,0.2007916 0.01616,0.055202 0.037302,0.1002094 0.064152,0.1347728 0.026859,0.034564 0.05781,0.059678 0.093246,0.075468 0.035556,0.015665 0.072609,0.023622 0.1110258,0.023622 0.027356,0 0.052965,-0.00249 0.077085,-0.00709 0.02424,-0.0046 0.046494,-0.010692 0.066891,-0.018276 0.020388,-0.00746 0.039039,-0.016163 0.055944,-0.025736 0.016785,-0.00957 0.031704,-0.019022 0.044509,-0.028347 l 0.038295,0.083798 c -0.015664,0.016163 -0.035187,0.031953 -0.058435,0.047245 -0.023247,0.015541 -0.049233,0.029341 -0.078078,0.041526 -0.028845,0.012433 -0.059179,0.022131 -0.091133,0.029839 -0.032072,0.00746 -0.064649,0.01119 -0.097847,0.01119 -0.074971,0 -0.1408645,-0.012931 -0.1976839,-0.038791 C 4.6252267,6.6056282 4.5777326,6.5703184 4.5396872,6.5254359 4.5015211,6.4806774 4.472796,6.4274645 4.4532798,6.3660459 4.433756,6.3047516 4.42381,6.2388571 4.4231938,6.1683625 m 0.903873,0.2200626 c 0,-0.042023 0.00796,-0.079322 0.023624,-0.1121449 0.015792,-0.032947 0.037293,-0.061916 0.064649,-0.087031 0.027356,-0.024866 0.059427,-0.046002 0.096355,-0.063407 0.036925,-0.017655 0.076837,-0.031828 0.1196039,-0.042893 0.042771,-0.010941 0.08728,-0.019022 0.13353,-0.024244 0.045998,-0.00535 0.092003,-0.00846 0.1372593,-0.0097 v -0.04625 c 0,-0.040656 -0.00282,-0.075094 -0.0087,-0.1031933 C 5.887568,5.8712149 5.877596,5.8482139 5.863302,5.8304349 5.848999,5.8125309 5.829981,5.7998499 5.806108,5.7918929 5.782236,5.7840629 5.752022,5.7802059 5.715347,5.7802059 c -0.031456,0 -0.062783,0.00286 -0.094241,0.0087 -0.031456,0.00585 -0.061422,0.012931 -0.090263,0.021385 -0.028845,0.00846 -0.055328,0.017406 -0.079568,0.026979 -0.023992,0.0097 -0.04426,0.01865 -0.060549,0.026607 h -7.515e-4 l -0.039159,-0.083798 c 0.010819,-0.010568 0.030334,-0.023871 0.058435,-0.040158 0.027724,-0.016163 0.060925,-0.032077 0.098842,-0.047245 0.038166,-0.01492 0.0792,-0.028099 0.123085,-0.039164 0.043892,-0.01119 0.087653,-0.016536 0.1312917,-0.016536 0.061174,0 0.1128917,0.00621 0.1550387,0.018649 0.042275,0.012432 0.076341,0.032698 0.1025717,0.0603 0.026106,0.0276 0.044757,0.063408 0.056201,0.1072961 0.011187,0.043888 0.017033,0.097598 0.017033,0.1610062 v 0.5689304 h 0.1081661 v 0.084544 c -0.010819,0.00299 -0.02412,0.00621 -0.039536,0.00995 -0.015415,0.00398 -0.031575,0.00746 -0.048489,0.010692 -0.016785,0.00311 -0.033938,0.00585 -0.051348,0.00821 -0.017658,0.00249 -0.034186,0.00348 -0.04973,0.00348 -0.016537,0 -0.030583,-6.217e-4 -0.042523,-0.00211 -0.011932,-0.00149 -0.021638,-0.00522 -0.029222,-0.01119 -0.00745,-0.00621 -0.013173,-0.015417 -0.017033,-0.027725 -0.00368,-0.012184 -0.00573,-0.028596 -0.00573,-0.049731 v -0.032326 c -0.00745,0.00709 -0.019892,0.017406 -0.037053,0.031082 -0.017153,0.013676 -0.038166,0.027352 -0.063408,0.041028 -0.024865,0.013676 -0.053462,0.025612 -0.085414,0.035682 -0.031952,0.010319 -0.066266,0.015417 -0.1029449,0.015417 -0.04016,0 -0.078327,-0.00535 -0.1146318,-0.016163 C 5.477988,6.6433006 5.446037,6.6266406 5.418435,6.6038886 5.390711,6.5815096 5.368705,6.5520426 5.35204,6.5163606 5.335384,6.4805536 5.327175,6.4380336 5.327175,6.3883016 m 0.3767179,0.148449 c 0.012437,0 0.026859,-0.00149 0.043764,-0.00472 0.016785,-0.00324 0.034314,-0.00771 0.052221,-0.013676 0.018154,-0.00572 0.036052,-0.01293 0.05371,-0.021634 0.017778,-0.0087 0.033938,-0.018401 0.048489,-0.028844 V 6.1467318 c -0.069622,0 -0.1280588,0.00621 -0.1749314,0.018401 -0.046871,0.012432 -0.084173,0.028596 -0.1121445,0.048489 -0.027972,0.020142 -0.047744,0.042893 -0.059308,0.06838 -0.011684,0.025736 -0.017401,0.052467 -0.017401,0.080441 0,0.031953 0.00411,0.059056 0.012437,0.081063 0.0087,0.022006 0.020269,0.040034 0.035059,0.054083 0.014919,0.013925 0.03232,0.023995 0.052717,0.030088 0.020388,0.00621 0.042275,0.00908 0.065522,0.00908 m 0.6109476,0.113508 V 6.5542827 L 6.4589469,6.539612 V 5.3224275 L 6.3149746,5.3066381 v -0.082927 l 0.2931676,-0.039288 h 0.00171 l 0.043516,0.030585 v 1.324603 l 0.1510604,0.01492 v 0.095733 H 6.3150704 Z"
     fill-rule="evenodd"
     fill="#333333"
     id="path127-3"
     style="stroke-width:0.124329" />
  <metadata
     id="metadata1328">
    <rdf:RDF>
      <cc:Work
         rdf:about="">
        <cc:license
           rdf:resource="http://creativecommons.org/licenses/by/4.0/" />
      </cc:Work>
      <cc:License
         rdf:about="http://creativecommons.org/licenses/by/4.0/">
        <cc:permits
           rdf:resource="http://creativecommons.org/ns#Reproduction" />
        <cc:permits
           rdf:resource="http://creativecommons.org/ns#Distribution" />
        <cc:requires
           rdf:resource="http://creativecommons.org/ns#Notice" />
        <cc:requires
           rdf:resource="http://creativecommons.org/ns#Attribution" />
        <cc:permits
           rdf:resource="http://creativecommons.org/ns#DerivativeWorks" />
      </cc:License>
    </rdf:RDF>
  </metadata>
</svg>
