<?xml version="1.0" encoding="UTF-8" standalone="no"?>
<svg
   width="7.7499995mm"
   height="7.75mm"
   viewBox="0 0 7.7499995 7.75"
   version="1.1"
   id="svg418"
   sodipodi:docname="luach-and-hebcal.svg"
   inkscape:version="1.1 (c4e8f9e, 2021-05-24)"
   inkscape:export-filename="/Users/mradwin/Downloads/hebcal-172.png"
   inkscape:export-xdpi="563.71997"
   inkscape:export-ydpi="563.71997"
   xmlns:inkscape="http://www.inkscape.org/namespaces/inkscape"
   xmlns:sodipodi="http://sodipodi.sourceforge.net/DTD/sodipodi-0.dtd"
   xmlns="http://www.w3.org/2000/svg"
   xmlns:svg="http://www.w3.org/2000/svg"
   xmlns:rdf="http://www.w3.org/1999/02/22-rdf-syntax-ns#"
   xmlns:cc="http://creativecommons.org/ns#">
  <defs
     id="defs422" />
  <sodipodi:namedview
     id="namedview420"
     pagecolor="#f9f9f9"
     bordercolor="#343422"
     borderopacity="1"
     inkscape:pageshadow="2"
     inkscape:pageopacity="0"
     inkscape:pagecheckerboard="true"
     inkscape:document-units="mm"
     showgrid="false"
     inkscape:zoom="14.808784"
     inkscape:cx="15.463795"
     inkscape:cy="20.764703"
     inkscape:window-width="1920"
     inkscape:window-height="977"
     inkscape:window-x="-11"
     inkscape:window-y="26"
     inkscape:window-maximized="0"
     inkscape:current-layer="svg418"
     fit-margin-top="0"
     fit-margin-left="0"
     fit-margin-right="0"
     fit-margin-bottom="0"
     inkscape:showpageshadow="true"
     showborder="true"
     lock-margins="true"
     borderlayer="false" />
  <rect
     style="fill:#f9f9f9;stroke:#f9f9f9;stroke-width:0.103146;stroke-opacity:0"
     id="rect531"
     width="8.1468544"
     height="8.1468544"
     x="-0.19842699"
     y="-0.19842699" />
  <g
     id="layer1"
     transform="translate(-97.325936,-89.568128)">
    <path
       d="m 103.14235,93.661975 c 0.1733,-0.0847 0.31273,-0.17542 0.41857,-0.27358 0.10583,-0.0984 0.18785,-0.19791 0.24606,-0.29898 0.0587,-0.10054 0.0979,-0.19897 0.11774,-0.29554 0.0201,-0.0966 0.0299,-0.18627 0.0299,-0.26882 0,-0.12858 -0.0283,-0.21775 -0.0852,-0.26723 -0.0566,-0.0497 -0.1397,-0.0741 -0.24871,-0.0741 h -0.889 c -0.0926,0 -0.16933,-0.009 -0.23125,-0.0275 -0.0619,-0.0185 -0.11112,-0.0444 -0.14869,-0.0794 -0.037,-0.0344 -0.0635,-0.0767 -0.0794,-0.12621 -0.0159,-0.0495 -0.0233,-0.10583 -0.0233,-0.16827 0,-0.127 0.003,-0.23019 0.009,-0.30824 0.005,-0.0783 0.0169,-0.14605 0.0344,-0.20294 0.0172,-0.0572 0.0413,-0.11059 0.0714,-0.16139 0.0307,-0.0503 0.0714,-0.10981 0.12277,-0.17913 0.008,-0.01 0.0132,-0.0175 0.0148,-0.0233 0.002,-0.006 0.003,-0.0106 0.003,-0.0132 0,-0.0169 -0.01,-0.0331 -0.0286,-0.0487 -0.0185,-0.0159 -0.0466,-0.0376 -0.0828,-0.0656 -0.063,-0.0495 -0.1151,-0.0958 -0.15611,-0.13864 -0.0415,-0.0429 -0.0622,-0.0865 -0.0622,-0.13123 0,-0.0246 0.009,-0.0537 0.0272,-0.0865 0.0185,-0.0331 0.0418,-0.0683 0.0706,-0.10531 0.0291,-0.037 0.0619,-0.0754 0.099,-0.11509 0.037,-0.0397 0.0741,-0.0783 0.11245,-0.11642 0.0148,0 0.0323,0.003 0.0519,0.01 0.0201,0.007 0.037,0.014 0.0497,0.0225 -0.006,0.0312 -0.009,0.0571 -0.007,0.0778 0.002,0.0206 0.009,0.0405 0.0212,0.0595 0.0124,0.0193 0.0318,0.0392 0.0569,0.0598 0.0257,0.0206 0.0598,0.0476 0.10319,0.0804 0.0688,0.0529 0.11774,0.0947 0.14552,0.12621 0.0283,0.0318 0.0423,0.0627 0.0423,0.0942 0,0.0246 -0.007,0.0516 -0.0222,0.0804 -0.0145,0.0291 -0.0336,0.0582 -0.0569,0.0878 -0.023,0.0291 -0.049,0.0601 -0.0778,0.0913 -0.0291,0.0318 -0.0572,0.0619 -0.0852,0.0915 -0.0281,0.0302 -0.0503,0.0582 -0.0669,0.0857 -0.0164,0.0272 -0.0296,0.0561 -0.0397,0.0868 -0.01,0.0304 -0.0164,0.0643 -0.0198,0.10133 -0.003,0.037 -0.005,0.0794 -0.005,0.12753 0,0.0529 0.003,0.0963 0.01,0.13018 0.006,0.0336 0.0201,0.0603 0.0408,0.0802 0.0206,0.0198 0.0503,0.0333 0.0889,0.0407 0.0389,0.007 0.09,0.0111 0.1524,0.0111 h 0.84931 c 0.10213,0 0.18971,0.0159 0.26247,0.0468 0.0725,0.0318 0.13229,0.0741 0.17833,0.12753 0.046,0.0534 0.0799,0.11535 0.10133,0.1852 0.0212,0.0704 0.0323,0.145 0.0323,0.22437 0,0.15346 -0.0251,0.32147 -0.0757,0.50377 -0.0503,0.18256 -0.12435,0.36592 -0.22384,0.55086 -0.0989,0.18521 -0.22066,0.36433 -0.36512,0.53869 -0.14446,0.1741 -0.31062,0.33073 -0.49874,0.46911 -0.0384,-0.005 -0.0722,-0.014 -0.10187,-0.0273 0.0148,-0.0942 0.0325,-0.19236 0.0529,-0.29475 0.0212,-0.10213 0.0429,-0.20055 0.0661,-0.29448 m -1.59967,0.62627 c -0.004,-0.0331 -0.007,-0.0794 -0.0101,-0.1397 -0.003,-0.0603 -0.007,-0.12489 -0.01,-0.19315 -0.003,-0.0688 -0.006,-0.13758 -0.007,-0.2069 -0.002,-0.0693 -0.003,-0.12859 -0.003,-0.17833 0,-0.16986 0.003,-0.31565 0.008,-0.43656 0.004,-0.12171 0.0106,-0.22755 0.0169,-0.31856 l 0.0175,-0.23998 c 0.005,-0.0693 0.007,-0.13705 0.007,-0.2032 0,-0.0246 -0.006,-0.045 -0.0175,-0.0609 -0.0114,-0.0153 -0.0272,-0.0286 -0.0471,-0.0397 -0.0196,-0.0106 -0.0423,-0.0191 -0.068,-0.0257 -0.0257,-0.007 -0.0516,-0.014 -0.0781,-0.0222 -0.0643,-0.0185 -0.1225,-0.0352 -0.17462,-0.0508 -0.0519,-0.0159 -0.0968,-0.0339 -0.13494,-0.0545 -0.0378,-0.0206 -0.0672,-0.045 -0.0878,-0.073 -0.0206,-0.0281 -0.031,-0.0627 -0.031,-0.10398 0,-0.0233 0.005,-0.0569 0.0159,-0.10054 0.0106,-0.0437 0.0249,-0.0908 0.0423,-0.14103 0.0172,-0.0503 0.0365,-0.10054 0.0582,-0.15001 0.0212,-0.0495 0.0418,-0.0916 0.0617,-0.12621 0.0132,-0.008 0.031,-0.0127 0.0529,-0.0132 0.0228,-0.001 0.0429,0 0.0609,0.003 0.01,0.0397 0.0238,0.0722 0.041,0.0979 0.0175,0.0254 0.041,0.0476 0.0706,0.0653 0.0296,0.0185 0.0661,0.0339 0.10901,0.0471 0.0429,0.0132 0.0952,0.0283 0.15822,0.045 0.0564,0.0148 0.10239,0.0291 0.13864,0.0423 0.0363,0.0127 0.0643,0.0264 0.0841,0.0405 0.0198,0.014 0.0333,0.0291 0.0408,0.0458 0.007,0.0167 0.0111,0.0344 0.0111,0.0545 0,0.0132 -0.003,0.0352 -0.007,0.0656 -0.005,0.0307 -0.01,0.0635 -0.0148,0.0979 -0.008,0.0561 -0.0169,0.12435 -0.0259,0.20425 -0.009,0.0799 -0.0138,0.18204 -0.0138,0.3056 0,0.1733 0.008,0.34554 0.0238,0.51594 0.0153,0.17118 0.0349,0.33416 0.0582,0.48948 l 0.027,0.19579 c 0.008,0.0609 0.0124,0.10795 0.0124,0.14076 0,0.0312 -0.004,0.0561 -0.0106,0.0741 -0.006,0.0185 -0.0169,0.037 -0.0318,0.0571 -0.0365,0.0476 -0.073,0.0974 -0.11033,0.14817 -0.037,0.0513 -0.0696,0.0984 -0.0979,0.14128 -0.046,0.005 -0.0915,0.005 -0.13599,0 m -3.146695,-2.86385 c 0.02117,0.0476 0.04418,0.0855 0.068,0.11272 0.02381,0.027 0.05159,0.0476 0.08308,0.0616 0.03175,0.014 0.06773,0.023 0.109008,0.0273 0.04127,0.004 0.08996,0.006 0.14605,0.006 h 1.166019 c 0.103978,0 0.191028,0.007 0.261408,0.022 0.0701,0.0151 0.12621,0.037 0.16828,0.0656 0.0423,0.0291 0.072,0.0656 0.0894,0.10927 0.0172,0.0439 0.0259,0.0945 0.0259,0.1524 0,0.0556 -0.009,0.11721 -0.0259,0.18415 -0.0175,0.0669 -0.036,0.1397 -0.0556,0.21908 0,0.24421 0.0106,0.46196 0.0317,0.65246 0.0217,0.1905 0.0423,0.35851 0.0622,0.50376 l 0.0272,0.1905 c 0.008,0.0582 0.0124,0.10319 0.0124,0.13627 0,0.0312 -0.003,0.0561 -0.01,0.0741 -0.007,0.0185 -0.0172,0.037 -0.0323,0.0571 -0.0344,0.0476 -0.0675,0.0953 -0.099,0.1434 -0.0318,0.0476 -0.0614,0.0966 -0.0894,0.14605 -0.046,0.005 -0.0915,0.005 -0.136,0 -0.005,-0.0312 -0.0106,-0.0767 -0.0159,-0.13599 -0.006,-0.0595 -0.0114,-0.12356 -0.0164,-0.19209 -0.005,-0.0688 -0.009,-0.13653 -0.0124,-0.20426 -0.003,-0.0677 -0.005,-0.12621 -0.005,-0.17568 0,-0.14367 5.3e-4,-0.26723 0.001,-0.37148 7.9e-4,-0.10398 0.002,-0.19261 0.004,-0.26617 10e-4,-0.0733 0.003,-0.13494 0.005,-0.18441 0.002,-0.0495 0.003,-0.0926 0.005,-0.12859 l 0.003,-0.11906 c 0.001,-0.0344 0.001,-0.0741 0.001,-0.11854 0,-0.0397 -0.003,-0.0725 -0.007,-0.099 -0.005,-0.0265 -0.0159,-0.0476 -0.0333,-0.0643 -0.0172,-0.0167 -0.0431,-0.0283 -0.0778,-0.0344 -0.0344,-0.007 -0.08096,-0.0106 -0.138642,-0.0106 h -1.173163 c -0.0085,0.12911 -0.01376,0.25823 -0.01588,0.38788 -0.0026,0.12964 -0.004,0.25876 -0.004,0.38761 0,0.17013 0.0016,0.3392 0.0048,0.508 l 0.01005,0.51197 c 0,0.0151 -0.0013,0.0291 -0.0037,0.0423 -0.0026,0.0132 -0.0095,0.0238 -0.02117,0.0318 -0.02461,0.0201 -0.05106,0.0413 -0.07937,0.0635 l -0.08017,0.0643 c -0.0254,0.0206 -0.04948,0.0405 -0.07144,0.0595 -0.02249,0.019 -0.04101,0.0349 -0.05556,0.0481 -0.04154,0.005 -0.08202,0.005 -0.121709,0 0.01667,-0.35454 0.03625,-0.70749 0.05953,-1.05833 0.02302,-0.35084 0.06271,-0.70035 0.119063,-1.04855 -0.04815,-0.003 -0.0926,-0.009 -0.132821,-0.0159 -0.04048,-0.008 -0.07541,-0.0201 -0.105039,-0.037 -0.0299,-0.0177 -0.05292,-0.0413 -0.06932,-0.0709 -0.0172,-0.0299 -0.02514,-0.0683 -0.02514,-0.11589 0,-0.0151 0.0032,-0.0392 0.0098,-0.0722 0.0066,-0.0328 0.01587,-0.0714 0.02857,-0.11642 0.01244,-0.0444 0.02725,-0.0934 0.04445,-0.1471 0.01746,-0.0534 0.03598,-0.10742 0.05556,-0.16193 0.01667,-0.008 0.03493,-0.014 0.05477,-0.0172 0.01984,-0.003 0.03889,-0.004 0.05689,-0.003 z"
       fill-rule="evenodd"
       fill="#941003"
       id="path13"
       style="stroke-width:0.264583" />
  </g>
  <path
     d="m 1.2497698,6.3126093 v -0.08675 l 0.131699,-0.022025 V 5.220586 L 1.255276,5.1992351 v -0.087087 h 0.4416188 v 0.086863 L 1.5620494,5.2203619 V 5.6445626 H 2.1180621 V 5.2203612 l -0.127766,-0.021351 v -0.086863 h 0.4353261 v 0.086863 l -0.1261929,0.021351 v 0.984147 l 0.1260803,0.02135 v 0.086863 H 1.9917569 v -0.086751 l 0.1261928,-0.02135 V 5.7470451 H 1.561937 v 0.4573507 l 0.1348455,0.02135 v 0.086863 H 1.2495451 m 1.7293927,0.01798 c -0.066861,0 -0.1252937,-0.011461 -0.1755237,-0.034611 -0.05023,-0.023036 -0.092144,-0.055399 -0.1258556,-0.096976 -0.033709,-0.041578 -0.058883,-0.091021 -0.075626,-0.1486671 -0.016857,-0.057646 -0.025283,-0.1209114 -0.025283,-0.1899074 0,-0.06967 0.010562,-0.1334969 0.031463,-0.1910309 0.021125,-0.057647 0.050567,-0.1070896 0.087987,-0.1483299 0.037646,-0.04124 0.082031,-0.073266 0.1337217,-0.095853 0.051466,-0.022474 0.1078763,-0.033936 0.1687814,-0.033936 0.099336,0 0.1764229,0.026969 0.2310355,0.080907 0.054725,0.053938 0.084278,0.1337218 0.08911,0.2393507 6.795e-4,0.03416 4.672e-4,0.064052 -6.796e-4,0.089447 -0.0011,0.025621 -0.00362,0.048095 -0.00786,0.067647 h -0.545793 v 0.00472 c 0.00225,0.059893 0.010788,0.1112476 0.026068,0.1537239 0.015171,0.042701 0.034835,0.077536 0.059556,0.1045052 0.024387,0.026969 0.052365,0.046859 0.083828,0.05922 0.031463,0.012136 0.064501,0.018317 0.09855,0.018317 0.022701,0 0.04551,-0.00202 0.068547,-0.00629 0.023262,-0.00416 0.04551,-0.00966 0.066749,-0.016519 0.02135,-0.00674 0.040789,-0.014609 0.058433,-0.023598 0.017532,-0.00899 0.032138,-0.01798 0.043825,-0.026969 l 0.033038,0.077536 c -0.015171,0.015058 -0.034499,0.029778 -0.057871,0.044049 -0.023372,0.014158 -0.049443,0.026632 -0.077985,0.03742 -0.028656,0.010788 -0.058995,0.01944 -0.09102,0.02607 -0.032138,0.00652 -0.064389,0.00978 -0.097089,0.00978 M 2.9593806,5.4860068 c -0.026184,0 -0.050567,0.00449 -0.073266,0.013709 -0.022475,0.00921 -0.042366,0.024946 -0.059556,0.046971 -0.017082,0.022137 -0.031013,0.05169 -0.0418,0.088324 -0.010678,0.036858 -0.017417,0.083155 -0.020004,0.1387784 H 3.130636 c 0.0011,-0.010563 0.0017,-0.021575 0.00191,-0.033149 4.672e-4,-0.011574 5.522e-4,-0.022474 5.522e-4,-0.032363 0,-0.029441 -0.00315,-0.057535 -0.00944,-0.084279 -0.0063,-0.026969 -0.016182,-0.050567 -0.029891,-0.071131 -0.01371,-0.020452 -0.031463,-0.036746 -0.053264,-0.048881 -0.0218,-0.012137 -0.048657,-0.018205 -0.080907,-0.018205 M 3.5076339,6.2681099 V 5.1121477 l -0.129227,-0.014046 -2.243e-4,-0.074951 0.2626113,-0.035509 h 0.00333 l 0.039331,0.026969 v 0.4831961 c 0.013484,-0.013035 0.028987,-0.02607 0.046069,-0.03888 0.017081,-0.012923 0.035957,-0.024385 0.05686,-0.034386 0.020678,-0.010114 0.0436,-0.01798 0.068549,-0.024048 0.024949,-0.00606 0.051917,-0.00899 0.080906,-0.00899 0.045171,0 0.088998,0.00821 0.1314751,0.024721 0.042703,0.016631 0.080346,0.042701 0.1129331,0.078098 0.032585,0.035621 0.058771,0.081244 0.07866,0.1370928 0.019557,0.055624 0.029444,0.1227093 0.029444,0.2011444 0,0.068772 -0.010676,0.133497 -0.032028,0.1944022 -0.021352,0.060681 -0.051917,0.1134949 -0.091807,0.1584434 -0.040003,0.044949 -0.088548,0.080345 -0.1460823,0.1064155 -0.057309,0.02607 -0.1215861,0.038993 -0.1930537,0.038993 -0.039331,0 -0.077314,-0.00225 -0.1134948,-0.00674 -0.036414,-0.00449 -0.068549,-0.00989 -0.097089,-0.016519 -0.028322,-0.00652 -0.051917,-0.013485 -0.070793,-0.020451 -0.0191,-0.00708 -0.03113,-0.01326 -0.036297,-0.018541 M 3.8625697,5.5122937 c -0.021127,0 -0.040792,0.00224 -0.05922,0.00742 -0.018427,0.00494 -0.03506,0.011462 -0.050114,0.019328 -0.014946,0.00786 -0.028322,0.016519 -0.04012,0.025846 -0.011913,0.00966 -0.021692,0.018878 -0.029552,0.027755 v 0.5938818 c 0.00363,0.00899 0.010111,0.016855 0.019665,0.023261 0.00944,0.00674 0.021011,0.012137 0.034836,0.016518 0.013484,0.00449 0.028763,0.00786 0.045619,0.010339 0.016857,0.00225 0.034836,0.00337 0.053604,0.00337 0.037303,0 0.07169,-0.00786 0.102932,-0.023598 0.031463,-0.015732 0.058431,-0.03933 0.081244,-0.070794 0.022813,-0.031689 0.040792,-0.071132 0.053936,-0.1184392 0.013152,-0.04719 0.02023,-0.1027019 0.021352,-0.166304 9.31e-4,-0.058995 -0.00426,-0.1101238 -0.015727,-0.1539485 C 4.0693357,5.6633278 4.0529277,5.6271438 4.0320317,5.598152 4.0109047,5.569272 3.9859627,5.547585 3.9570767,5.533539 3.9281977,5.519155 3.8966187,5.512188 3.8624607,5.512188 M 4.424654,5.8773945 c 0,-0.06585 0.010111,-0.1281032 0.03079,-0.1865363 0.020446,-0.05877 0.050339,-0.1101238 0.089448,-0.1547351 0.039331,-0.044387 0.087201,-0.079784 0.1438358,-0.105629 0.05686,-0.02607 0.1210236,-0.039106 0.1926042,-0.039106 0.026295,0 0.051468,0.0018 0.075628,0.00517 0.024276,0.00337 0.046749,0.00786 0.06742,0.012698 0.020787,0.00506 0.039331,0.010451 0.055623,0.016182 0.016292,0.00584 0.029776,0.011236 0.040228,0.015732 L 5.112371,5.6731042 H 5.0059466 L 4.970554,5.5423044 C 4.956846,5.5243244 4.939649,5.5106154 4.918861,5.5009524 4.898074,5.4911724 4.872792,5.4863434 4.842676,5.4863434 c -0.029892,0 -0.058431,0.00674 -0.085851,0.020451 -0.027417,0.013709 -0.051692,0.034273 -0.073044,0.061804 -0.021352,0.027755 -0.038209,0.062141 -0.051244,0.1033815 -0.012811,0.041352 -0.019557,0.08956 -0.019998,0.1447341 -6.801e-4,0.071019 0.00626,0.1314743 0.020679,0.1814795 0.014606,0.049893 0.033714,0.090571 0.057982,0.1218103 0.024276,0.03124 0.05225,0.053938 0.084278,0.06821 0.032136,0.014158 0.065626,0.02135 0.1003474,0.02135 0.024725,0 0.047871,-0.00225 0.069671,-0.00641 0.021909,-0.00416 0.042022,-0.00966 0.060457,-0.016518 0.018427,-0.00674 0.035284,-0.014609 0.050563,-0.023261 0.015171,-0.00865 0.028655,-0.017192 0.040228,-0.02562 l 0.034612,0.075738 c -0.014157,0.014608 -0.031803,0.02888 -0.052815,0.042701 -0.021011,0.014046 -0.044498,0.026519 -0.070568,0.037532 -0.026071,0.011237 -0.053487,0.020002 -0.082368,0.026969 -0.028987,0.00674 -0.058431,0.010114 -0.088436,0.010114 -0.06776,0 -0.1273161,-0.011687 -0.1786707,-0.03506 C 4.6073703,6.2723797 4.5644442,6.240466 4.530058,6.1999003 4.4955627,6.1594467 4.4696004,6.1113518 4.4519613,6.0558405 4.4343153,6.0004414 4.4253259,5.9408847 4.4247689,5.8771702 m 0.8169386,0.198897 c 0,-0.037981 0.00719,-0.071693 0.021352,-0.1013588 0.014273,-0.029778 0.033706,-0.055961 0.058431,-0.07866 0.024725,-0.022474 0.053711,-0.041578 0.087088,-0.057309 0.033374,-0.015957 0.069447,-0.028767 0.1081004,-0.038767 0.038657,-0.00989 0.078885,-0.017193 0.1206871,-0.021912 0.041574,-0.00484 0.083154,-0.00765 0.1240577,-0.00877 v -0.041802 c 0,-0.036746 -0.00255,-0.067871 -0.00786,-0.093268 -0.00526,-0.025621 -0.014273,-0.046409 -0.027192,-0.062478 -0.012927,-0.016182 -0.030116,-0.027643 -0.051693,-0.034835 -0.021576,-0.00708 -0.048884,-0.010563 -0.082032,-0.010563 -0.028431,0 -0.056744,0.00258 -0.085177,0.00786 -0.028431,0.00529 -0.055514,0.011687 -0.081582,0.019328 -0.026071,0.00765 -0.050007,0.015732 -0.071915,0.024384 -0.021684,0.00877 -0.040003,0.016856 -0.054725,0.024048 h -6.792e-4 l -0.035393,-0.075738 c 0.00978,-0.00955 0.027417,-0.021575 0.052815,-0.036296 0.025057,-0.014608 0.055065,-0.028992 0.089335,-0.042701 0.034495,-0.013485 0.071583,-0.025396 0.1112467,-0.035397 0.03967,-0.010114 0.079223,-0.014945 0.1186641,-0.014945 0.05529,0 0.1020338,0.00561 0.1401271,0.016855 0.038209,0.011236 0.068998,0.029553 0.092706,0.0545 0.023595,0.024945 0.040452,0.057309 0.050795,0.096976 0.010111,0.039667 0.015395,0.088211 0.015395,0.1455207 v 0.5142107 h 0.097763 v 0.076412 c -0.00978,0.0027 -0.0218,0.00561 -0.035733,0.00899 -0.013932,0.0036 -0.028538,0.00674 -0.043825,0.00966 -0.015171,0.00281 -0.030674,0.00529 -0.046409,0.00742 -0.01596,0.00225 -0.030898,0.00315 -0.044947,0.00315 -0.014947,0 -0.027642,-5.619e-4 -0.038433,-0.00191 -0.010784,-0.00135 -0.019557,-0.00472 -0.026412,-0.010114 -0.00673,-0.00561 -0.011906,-0.013934 -0.015395,-0.025058 -0.00333,-0.011012 -0.00518,-0.025846 -0.00518,-0.044948 v -0.029217 c -0.00673,0.00641 -0.017979,0.015732 -0.033489,0.028093 -0.015503,0.012361 -0.034495,0.024721 -0.057309,0.037082 -0.022474,0.012361 -0.04832,0.023149 -0.077199,0.03225 -0.028879,0.00933 -0.059893,0.013934 -0.093044,0.013934 -0.036297,0 -0.070793,-0.00484 -0.1036066,-0.014608 -0.032925,-0.00967 -0.061803,-0.024726 -0.08675,-0.045289 -0.02506,-0.020216 -0.04495,-0.046849 -0.060012,-0.079099 -0.015054,-0.032363 -0.022473,-0.070793 -0.022473,-0.1157423 m 0.3404847,0.1341713 c 0.011241,0 0.024276,-0.00135 0.039555,-0.00427 0.015171,-0.00293 0.031014,-0.00697 0.047198,-0.012361 0.016408,-0.00517 0.032585,-0.011686 0.048544,-0.019553 0.016068,-0.00786 0.030674,-0.016631 0.043825,-0.02607 V 5.85762 c -0.062926,0 -0.1157421,0.00561 -0.1581065,0.016631 C 5.560943,5.885487 5.527229,5.900097 5.5019476,5.918076 5.4766656,5.936281 5.4587956,5.956844 5.4483436,5.979879 5.4377836,6.00314 5.4326166,6.0273 5.4326166,6.052583 c 0,0.02888 0.00371,0.053376 0.011241,0.073266 0.00786,0.019889 0.01832,0.036183 0.031687,0.048881 0.013484,0.012586 0.029211,0.021687 0.047647,0.027194 0.018427,0.00561 0.038209,0.00821 0.05922,0.00821 m 0.5521867,0.1025908 v -0.08675 l 0.130125,-0.01326 V 5.1125972 L 6.1345983,5.0983262 V 5.0233752 L 6.399569,4.9878662 h 0.00155 L 6.44045,5.0155092 V 6.212712 L 6.5769814,6.226197 V 6.312722 H 6.134685 Z"
     fill-rule="evenodd"
     fill="#333333"
     id="path127-3"
     style="stroke-width:0.112371" />
  <metadata
     id="metadata1328">
    <rdf:RDF>
      <cc:Work
         rdf:about="">
        <cc:license
           rdf:resource="http://creativecommons.org/licenses/by/4.0/" />
      </cc:Work>
      <cc:License
         rdf:about="http://creativecommons.org/licenses/by/4.0/">
        <cc:permits
           rdf:resource="http://creativecommons.org/ns#Reproduction" />
        <cc:permits
           rdf:resource="http://creativecommons.org/ns#Distribution" />
        <cc:requires
           rdf:resource="http://creativecommons.org/ns#Notice" />
        <cc:requires
           rdf:resource="http://creativecommons.org/ns#Attribution" />
        <cc:permits
           rdf:resource="http://creativecommons.org/ns#DerivativeWorks" />
      </cc:License>
    </rdf:RDF>
  </metadata>
</svg>
