<svg xmlns="http://www.w3.org/2000/svg" width="512" height="512" viewBox="0 0 135.467 135.467" style="zoom:1"><path fill="#f9f9f9" d="M.847.847H134.62V134.62H.847z"/><path d="M100.42 73.72c2.869-1.437 5.176-2.977 6.928-4.643 1.752-1.67 3.11-3.36 4.073-5.075.971-1.706 1.62-3.377 1.949-5.016.332-1.64.495-3.162.495-4.563 0-2.183-.469-3.696-1.41-4.536-.937-.844-2.313-1.258-4.117-1.258H93.623c-1.532 0-2.802-.152-3.827-.466-1.025-.315-1.84-.754-2.461-1.348a4.956 4.956 0 0 1-1.314-2.142c-.264-.84-.386-1.797-.386-2.857 0-2.155.05-3.907.149-5.232.083-1.329.28-2.479.57-3.444.284-.971.683-1.878 1.181-2.74.508-.854 1.182-1.864 2.032-3.04.132-.17.219-.297.245-.396a.851.851 0 0 0 .05-.224c0-.287-.166-.562-.474-.826-.306-.27-.771-.639-1.37-1.114-1.043-.84-1.905-1.626-2.584-2.353-.687-.728-1.03-1.468-1.03-2.228 0-.417.15-.911.45-1.468.307-.562.692-1.16 1.17-1.787a30.03 30.03 0 0 1 1.638-1.954 70.89 70.89 0 0 1 1.861-1.976c.245 0 .535.05.859.17.333.118.612.237.823.382-.1.53-.15.969-.116 1.32.033.35.149.688.35 1.01.206.328.527.665.942 1.015.426.35.99.808 1.708 1.365 1.14.898 1.95 1.607 2.41 2.142.467.54.7 1.064.7 1.599 0 .418-.117.876-.368 1.365-.24.494-.556.988-.942 1.49-.38.494-.811 1.02-1.288 1.55-.481.54-.947 1.05-1.41 1.553-.465.512-.833.988-1.107 1.454-.272.462-.49.953-.657 1.474a7.973 7.973 0 0 0-.328 1.72c-.05.628-.083 1.348-.083 2.164 0 .898.05 1.635.166 2.21.099.57.332 1.024.675 1.361.34.337.833.566 1.471.691.644.12 1.49.189 2.523.189h14.057c1.69 0 3.14.27 4.345.794 1.2.54 2.19 1.258 2.951 2.165a8.723 8.723 0 0 1 1.678 3.143c.35 1.195.534 2.462.534 3.809 0 2.605-.415 5.456-1.253 8.55-.832 3.1-2.058 6.212-3.705 9.35-1.637 3.145-3.652 6.185-6.043 9.145a46.918 46.918 0 0 1-8.255 7.962 5.875 5.875 0 0 1-1.686-.463c.245-1.6.538-3.265.875-5.003a140.5 140.5 0 0 1 1.094-4.999m-26.477 10.63c-.066-.561-.116-1.347-.167-2.37-.05-1.024-.116-2.12-.165-3.28-.05-1.167-.1-2.335-.116-3.511a109.73 109.73 0 0 1-.05-3.027c0-2.883.05-5.358.132-7.41.067-2.066.176-3.863.28-5.407l.29-4.074a49.07 49.07 0 0 0 .116-3.449c0-.417-.1-.764-.29-1.034a2.448 2.448 0 0 0-.78-.673c-.324-.18-.7-.325-1.125-.437-.425-.119-.854-.237-1.293-.377-1.064-.314-2.027-.597-2.89-.862-.859-.27-1.602-.575-2.233-.925-.626-.35-1.113-.764-1.454-1.239-.34-.477-.513-1.064-.513-1.765 0-.395.083-.966.263-1.706.176-.742.413-1.542.7-2.394.285-.854.605-1.707.964-2.547.35-.84.692-1.554 1.021-2.142.219-.136.513-.215.876-.224.377-.017.71 0 1.008.051.165.674.394 1.226.678 1.662.29.43.679.808 1.169 1.108.49.314 1.094.576 1.804.8.71.224 1.576.48 2.619.763a25.9 25.9 0 0 1 2.295.718c.6.216 1.064.449 1.392.688.327.238.55.494.675.777.116.284.184.584.184.925 0 .224-.05.598-.116 1.114a75.581 75.581 0 0 0-.245 1.662c-.133.952-.28 2.11-.429 3.467-.149 1.356-.228 3.09-.228 5.187 0 2.941.132 5.865.394 8.757.253 2.906.577 5.672.963 8.309l.447 3.323c.132 1.034.205 1.832.205 2.39 0 .529-.066.951-.175 1.257-.1.314-.28.628-.527.97-.604.807-1.208 1.652-1.826 2.514-.612.87-1.152 1.67-1.62 2.398a9.98 9.98 0 0 1-2.251 0m-52.083-48.61c.35.808.731 1.45 1.125 1.913.394.458.854.808 1.375 1.045.526.238 1.122.39 1.805.464a24.84 24.84 0 0 0 2.417.102h19.3c1.72 0 3.161.119 4.326.373 1.16.256 2.09.628 2.786 1.114.7.494 1.191 1.113 1.48 1.854.284.746.428 1.604.428 2.587 0 .944-.149 1.99-.429 3.126-.29 1.135-.595 2.371-.92 3.719 0 4.145.176 7.84.525 11.074.359 3.234.7 6.086 1.03 8.551l.45 3.234c.132.987.205 1.751.205 2.313 0 .53-.05.952-.166 1.257a3.922 3.922 0 0 1-.534.97 64.416 64.416 0 0 0-1.639 2.434 39.647 39.647 0 0 0-1.48 2.479 9.982 9.982 0 0 1-2.25 0 35.81 35.81 0 0 1-.264-2.309c-.1-1.01-.189-2.097-.271-3.26a158.536 158.536 0 0 1-.206-3.467 71.826 71.826 0 0 1-.082-2.982c0-2.439.008-4.536.016-6.306.013-1.765.033-3.269.066-4.518.017-1.244.05-2.29.083-3.13.033-.84.05-1.571.083-2.182l.05-2.021c.016-.584.016-1.258.016-2.012 0-.674-.05-1.231-.116-1.68-.082-.45-.263-.809-.55-1.092-.286-.284-.714-.48-1.289-.584-.569-.119-1.34-.18-2.294-.18H27.523a136.7 136.7 0 0 0-.263 6.584c-.043 2.2-.066 4.392-.066 6.58 0 2.887.026 5.757.08 8.622l.166 8.69c0 .256-.022.494-.062.718a.826.826 0 0 1-.35.54c-.407.34-.845.7-1.314 1.077l-1.327 1.092c-.42.35-.819.687-1.182 1.01-.372.322-.679.592-.92.816a8 8 0 0 1-2.014 0c.276-6.018.6-12.009.985-17.964a193.28 193.28 0 0 1 1.97-17.798 19.998 19.998 0 0 1-2.198-.27c-.67-.135-1.248-.34-1.738-.628a3.117 3.117 0 0 1-1.148-1.203c-.284-.507-.416-1.16-.416-1.967 0-.256.053-.665.163-1.226.109-.556.262-1.212.472-1.976.206-.753.451-1.585.736-2.497.29-.906.596-1.823.92-2.748.276-.136.578-.238.906-.292.329-.051.644-.068.942-.051" fill-rule="evenodd" fill="#941003"/><path d="M24.835 111.382v-1.473l2.18-.373v-16.69l-2.09-.362v-1.479h7.31v1.475l-2.232.362v7.2h9.203v-7.2l-2.115-.362v-1.475h7.206v1.475l-2.089.362v16.705l2.087.362v1.475h-7.18v-1.473l2.09-.362v-7.767H30v7.763l2.232.362v1.475h-7.402m28.624.305c-1.107 0-2.074-.194-2.905-.587a5.72 5.72 0 0 1-2.083-1.646c-.558-.706-.975-1.545-1.252-2.524-.279-.978-.418-2.052-.418-3.223 0-1.183.174-2.266.52-3.243.35-.978.837-1.818 1.457-2.518a6.477 6.477 0 0 1 2.213-1.627 6.767 6.767 0 0 1 2.794-.576c1.644 0 2.92.458 3.824 1.374.905.915 1.395 2.27 1.475 4.062.01.58.007 1.088-.012 1.519-.018.435-.06.816-.13 1.148h-9.034v.08c.038 1.017.179 1.888.432 2.61.251.724.576 1.315.986 1.773a3.68 3.68 0 0 0 1.387 1.005c.52.206 1.068.311 1.631.311.376 0 .754-.034 1.135-.107.385-.07.753-.164 1.105-.28.353-.114.675-.248.967-.4.29-.153.532-.306.725-.458l.547 1.316a5.231 5.231 0 0 1-.958.747c-.387.24-.818.453-1.29.636-.475.183-.977.33-1.507.442a7.856 7.856 0 0 1-1.607.166m-.326-14.336c-.433 0-.837.076-1.212.233-.372.156-.701.423-.986.797-.283.376-.513.878-.692 1.5-.177.625-.288 1.41-.331 2.355h6.056c.018-.18.028-.366.032-.563.007-.196.009-.381.009-.549 0-.5-.052-.977-.157-1.43a3.694 3.694 0 0 0-.494-1.208 2.547 2.547 0 0 0-.882-.83c-.36-.206-.805-.309-1.339-.309m9.07 13.28V91.005l-2.138-.238-.004-1.272 4.347-.603h.055l.651.458v8.202c.223-.222.48-.443.763-.66a5.486 5.486 0 0 1 3.415-1.144c.747 0 1.472.139 2.176.419.706.282 1.33.725 1.869 1.325.54.605.973 1.38 1.302 2.327.323.945.487 2.083.487 3.415 0 1.167-.177 2.266-.53 3.3-.353 1.03-.86 1.926-1.52 2.689a7.135 7.135 0 0 1-2.418 1.806c-.948.443-2.012.662-3.195.662-.65 0-1.28-.038-1.878-.115a15.209 15.209 0 0 1-1.607-.28 9.565 9.565 0 0 1-1.172-.347c-.316-.12-.515-.225-.6-.315m5.873-12.837c-.35 0-.675.038-.98.126-.306.084-.58.195-.83.328-.247.134-.469.28-.664.44a4.15 4.15 0 0 0-.49.47v10.08a.86.86 0 0 0 .326.396c.157.114.348.206.577.28.223.076.476.133.755.175.279.039.577.058.887.058a3.66 3.66 0 0 0 1.704-.4c.52-.268.967-.668 1.345-1.203.377-.537.675-1.207.892-2.01.218-.8.335-1.743.354-2.823.015-1.001-.07-1.869-.26-2.613-.194-.74-.466-1.354-.811-1.846-.35-.49-.763-.859-1.241-1.097-.478-.244-1-.362-1.566-.362m9.305 6.199c0-1.118.167-2.175.51-3.167a7.898 7.898 0 0 1 1.48-2.626 7.067 7.067 0 0 1 2.381-1.793c.941-.443 2.003-.664 3.188-.664.435 0 .852.03 1.252.088.401.057.773.133 1.116.216.344.085.65.177.92.274.27.1.493.19.666.267l-.13 3.937h-1.762l-.585-2.22a2.26 2.26 0 0 0-.856-.702c-.344-.166-.762-.248-1.26-.248-.496 0-.968.114-1.422.347-.454.233-.855.582-1.209 1.05-.353.47-.632 1.054-.848 1.754-.212.702-.324 1.52-.331 2.457-.011 1.205.104 2.231.342 3.08.242.847.558 1.537.96 2.068.402.53.865.915 1.395 1.157.532.24 1.086.363 1.66.363.41 0 .793-.038 1.154-.109.363-.07.695-.164 1-.28a5.54 5.54 0 0 0 .837-.395 7.16 7.16 0 0 0 .666-.435l.573 1.286c-.234.247-.526.49-.874.724-.348.239-.736.45-1.168.637a8.27 8.27 0 0 1-1.363.458c-.48.115-.967.172-1.464.172-1.122 0-2.107-.199-2.957-.595a6.043 6.043 0 0 1-2.126-1.627c-.571-.687-1-1.503-1.293-2.445-.292-.94-.44-1.952-.45-3.033m13.522 3.376c0-.645.119-1.217.353-1.72.236-.506.558-.95.967-1.336a5.79 5.79 0 0 1 1.442-.973 9.707 9.707 0 0 1 1.789-.658c.64-.167 1.306-.291 1.998-.371.688-.083 1.376-.13 2.053-.15v-.709c0-.624-.042-1.152-.13-1.583-.087-.435-.236-.788-.45-1.06a1.78 1.78 0 0 0-.856-.592c-.357-.12-.809-.179-1.358-.179-.47 0-.939.044-1.41.133a13.671 13.671 0 0 0-2.54.742c-.359.15-.662.286-.906.409h-.011l-.586-1.286c.162-.162.454-.366.874-.616a11.16 11.16 0 0 1 1.479-.725 15.116 15.116 0 0 1 1.841-.6 7.732 7.732 0 0 1 1.964-.254c.915 0 1.69.095 2.32.286.632.19 1.142.501 1.534.925.39.423.67.972.84 1.646.168.673.256 1.497.256 2.47v8.728h1.618v1.297c-.162.046-.361.095-.592.153-.23.06-.472.114-.725.164-.251.047-.508.09-.768.125a5.176 5.176 0 0 1-.744.054 5.2 5.2 0 0 1-.636-.032.852.852 0 0 1-.437-.172.883.883 0 0 1-.255-.425 2.77 2.77 0 0 1-.086-.763v-.496a9.472 9.472 0 0 1-.554.477c-.257.21-.571.42-.949.629-.372.21-.8.393-1.278.547a4.867 4.867 0 0 1-1.54.237 5.84 5.84 0 0 1-1.715-.248 3.965 3.965 0 0 1-1.435-.769c-.415-.343-.744-.795-.994-1.342-.249-.55-.372-1.202-.372-1.965m5.636 2.277c.186 0 .402-.022.655-.072.25-.05.513-.118.78-.21a5.593 5.593 0 0 0 1.53-.774v-4.927c-1.042 0-1.916.095-2.617.282-.701.191-1.26.439-1.678.744-.418.31-.714.658-.887 1.05a3.01 3.01 0 0 0-.26 1.233c0 .49.061.906.186 1.244.13.337.303.614.524.83.223.213.484.368.789.461.305.095.632.14.98.14m9.14 1.74v-1.472l2.153-.225V91.013l-2.153-.242v-1.272l4.385-.603h.026l.65.47v20.32l2.26.23v1.468h-7.32" fill-rule="evenodd" fill="#333"/></svg>