<svg height='100px' width='100px'  fill="#000000" xmlns="http://www.w3.org/2000/svg" xmlns:xlink="http://www.w3.org/1999/xlink" version="1.1" x="0px" y="0px" viewBox="0 0 100 100" style="enable-background:new 0 0 100 100;" xml:space="preserve"><style type="text/css">
	.st0{fill:none;stroke:#000000;stroke-width:2;stroke-linecap:round;stroke-linejoin:round;stroke-miterlimit:10;}
</style><path d="M88.5,19.9h-5.6v-6c0-1.8-1.4-3.2-3.2-3.2s-3.2,1.4-3.2,3.2v6h-5.6c-0.6,0-1,0.4-1,1v6.5c0,0.6,0.4,1,1,1h0.9v1.5H28.2v-1.5  H29c0.6,0,1-0.4,1-1v-6.5c0-0.6-0.4-1-1-1h-5.6v-6c0-1.8-1.4-3.2-3.2-3.2S17,12.1,17,13.9v6h-5.6c-0.6,0-1,0.4-1,1v6.5  c0,0.6,0.4,1,1,1h0.9v44.3h-0.9c-0.6,0-1,0.4-1,1v6.5c0,0.6,0.4,1,1,1H17v6c0,1.8,1.4,3.2,3.2,3.2s3.2-1.4,3.2-3.2v-6H29  c0.6,0,1-0.4,1-1v-6.5c0-0.6-0.4-1-1-1h-0.9V71h43.5v1.6h-0.9c-0.6,0-1,0.4-1,1v6.5c0,0.6,0.4,1,1,1h5.6v6c0,1.8,1.4,3.2,3.2,3.2  s3.2-1.4,3.2-3.2v-6h5.6c0.6,0,1-0.4,1-1v-6.5c0-0.6-0.4-1-1-1h-0.8V28.4h0.8c0.6,0,1-0.4,1-1v-6.5C89.5,20.3,89,19.9,88.5,19.9z   M78.4,13.9c0-0.7,0.5-1.2,1.2-1.2c0.7,0,1.2,0.5,1.2,1.2v6h-2.4V13.9z M71.8,21.9h15.7v4.5H71.8V21.9z M19,13.9  c0-0.7,0.5-1.2,1.2-1.2c0.7,0,1.2,0.5,1.2,1.2v6H19V13.9z M12.3,21.9H28v4.5H12.3V21.9z M21.4,87.2c0,0.7-0.5,1.2-1.2,1.2  c-0.7,0-1.2-0.5-1.2-1.2v-6h2.4V87.2z M28,79.1H12.3v-4.5H28V79.1z M14.2,72.6V28.4h12v44.3H14.2z M28.2,69V31.9h43.5V69H28.2z   M80.8,87.2c0,0.7-0.5,1.2-1.2,1.2c-0.7,0-1.2-0.5-1.2-1.2v-6h2.4V87.2z M87.5,79.1H71.8v-4.5h15.7V79.1z M85.6,72.6h-12V28.4h12  V72.6z"></path></svg>