<?xml version="1.0" encoding="UTF-8" standalone="no"?>
<!-- Created with Inkscape (http://www.inkscape.org/) -->

<svg
   width="20.88756mm"
   height="21.087292mm"
   viewBox="0 0 20.88756 21.087292"
   version="1.1"
   id="svg127"
   inkscape:version="1.1 (c4e8f9e, 2021-05-24)"
   sodipodi:docname="torah-orange-2.svg"
   xmlns:inkscape="http://www.inkscape.org/namespaces/inkscape"
   xmlns:sodipodi="http://sodipodi.sourceforge.net/DTD/sodipodi-0.dtd"
   xmlns="http://www.w3.org/2000/svg"
   xmlns:svg="http://www.w3.org/2000/svg">
  <sodipodi:namedview
     id="namedview129"
     pagecolor="#ffffff"
     bordercolor="#666666"
     borderopacity="1.0"
     inkscape:pageshadow="2"
     inkscape:pageopacity="0.0"
     inkscape:pagecheckerboard="0"
     inkscape:document-units="mm"
     showgrid="false"
     fit-margin-top="0"
     fit-margin-left="0"
     fit-margin-right="0"
     fit-margin-bottom="0"
     inkscape:zoom="4.4022489"
     inkscape:cx="0.56789156"
     inkscape:cy="68.487722"
     inkscape:window-width="1312"
     inkscape:window-height="847"
     inkscape:window-x="0"
     inkscape:window-y="25"
     inkscape:window-maximized="0"
     inkscape:current-layer="layer1" />
  <defs
     id="defs124" />
  <g
     inkscape:label="Layer 1"
     inkscape:groupmode="layer"
     id="layer1"
     transform="translate(-151.59942,-62.161955)">
    <path
       style="stroke-width:0.264583;fill:#ff6600"
       d="m 172.26337,64.596121 h -1.48166 v -1.5875 c 0,-0.47625 -0.37042,-0.846666 -0.84667,-0.846666 -0.47625,0 -0.84667,0.370416 -0.84667,0.846666 v 1.5875 h -1.48166 c -0.15875,0 -0.26459,0.105834 -0.26459,0.264584 v 1.719791 c 0,0.15875 0.10584,0.264584 0.26459,0.264584 h 0.23812 v 0.396875 H 156.309 V 66.84508 h 0.21167 c 0.15875,0 0.26458,-0.105834 0.26458,-0.264584 v -1.719791 c 0,-0.15875 -0.10583,-0.264584 -0.26458,-0.264584 H 155.039 v -1.5875 c 0,-0.47625 -0.37042,-0.846666 -0.84667,-0.846666 -0.47625,0 -0.84666,0.370416 -0.84666,0.846666 v 1.5875 H 151.864 c -0.15875,0 -0.26458,0.105834 -0.26458,0.264584 v 1.719791 c 0,0.15875 0.10583,0.264584 0.26458,0.264584 h 0.23812 V 78.566121 H 151.864 c -0.15875,0 -0.26458,0.105833 -0.26458,0.264583 v 1.719792 c 0,0.15875 0.10583,0.264583 0.26458,0.264583 h 1.48167 v 1.5875 c 0,0.47625 0.37041,0.846667 0.84666,0.846667 0.47625,0 0.84667,-0.370417 0.84667,-0.846667 v -1.5875 h 1.48167 c 0.15875,0 0.26458,-0.105833 0.26458,-0.264583 v -1.719792 c 0,-0.15875 -0.10583,-0.264583 -0.26458,-0.264583 h -0.23813 v -0.449792 h 11.50938 v 0.423334 h -0.23813 c -0.15875,0 -0.26458,0.105833 -0.26458,0.264583 v 1.719792 c 0,0.15875 0.10583,0.264583 0.26458,0.264583 h 1.48167 v 1.5875 c 0,0.47625 0.37041,0.846667 0.84666,0.846667 0.47625,0 0.84667,-0.370417 0.84667,-0.846667 v -1.5875 h 1.48167 c 0.15875,0 0.26458,-0.105833 0.26458,-0.264583 v -1.719792 c 0,-0.15875 -0.10583,-0.264583 -0.26458,-0.264583 h -0.21167 V 66.84508 h 0.21167 c 0.15875,0 0.26458,-0.105834 0.26458,-0.264584 v -1.719791 c 0.0529,-0.15875 -0.0794,-0.264584 -0.21167,-0.264584 z"
       id="path107" />
    <path
       style="stroke-width:0.264583;fill:#ffd744;fill-opacity:1"
       d="m 171.49608,78.539663 h -3.175 V 66.84508 h 3.175 z"
       id="path153" />
    <path
       style="stroke-width:0.264583;fill:#ff9200;fill-opacity:1"
       d="m 171.99879,80.259454 h -4.15396 v -1.190625 h 4.15396 z"
       id="path151" />
    <path
       style="stroke-width:0.264583;fill:#ff9200;fill-opacity:1"
       d="m 170.22608,82.402579 c 0,0.185209 -0.13229,0.3175 -0.3175,0.3175 -0.18521,0 -0.3175,-0.132291 -0.3175,-0.3175 v -1.5875 h 0.635 z"
       id="path149" />
    <path
       style="stroke-width:0.264583;fill:#ffe998;fill-opacity:1"
       d="m 156.309,77.587163 v -9.816042 h 11.50937 v 9.816042 z"
       id="path147" />
    <path
       style="stroke-width:0.264583;fill:#ffd744;fill-opacity:1"
       d="M 152.60483,78.539663 V 66.84508 h 3.175 v 11.721041 h -3.175 z"
       id="path145" />
    <path
       style="stroke-width:0.264583;fill:#ff9200;fill-opacity:1"
       d="m 156.25608,80.259454 h -4.15396 v -1.190625 h 4.15396 z"
       id="path143" />
    <path
       style="stroke-width:0.264583;fill:#ff9200;fill-opacity:1"
       d="m 154.50983,82.402579 c 0,0.185209 -0.13229,0.3175 -0.3175,0.3175 -0.18521,0 -0.3175,-0.132291 -0.3175,-0.3175 v -1.5875 h 0.635 z"
       id="path141" />
    <path
       style="stroke-width:0.264583;fill:#ff9200;fill-opacity:1"
       d="m 152.10212,65.125288 h 4.15396 v 1.190625 h -4.15396 z"
       id="path139" />
    <path
       style="stroke-width:0.264583;fill:#ff9200;fill-opacity:1"
       d="m 153.87483,63.008621 c 0,-0.185208 0.13229,-0.3175 0.3175,-0.3175 0.18521,0 0.3175,0.132292 0.3175,0.3175 v 1.5875 h -0.635 z"
       id="path137" />
    <path
       style="stroke-width:0.264583;fill:#ff9200;fill-opacity:1"
       d="m 167.84483,65.125288 h 4.15396 v 1.190625 h -4.15396 z"
       id="path135" />
    <path
       style="stroke-width:0.264583;fill:#ff9200;fill-opacity:1"
       d="m 169.59108,63.008621 c 0,-0.185208 0.13229,-0.3175 0.3175,-0.3175 0.18521,0 0.3175,0.132292 0.3175,0.3175 v 1.5875 h -0.635 z"
       id="path133" />
  </g>
</svg>
