<svg viewBox="0 0 512 512" style="zoom:1" xml:space="preserve" xmlns="http://www.w3.org/2000/svg"><path d="M465.205 442.985v51.806c0 9.504-7.704 17.208-17.208 17.208s-17.208-7.705-17.208-17.208v-51.806h34.416m-384.006 0v51.806c0 9.504-7.705 17.208-17.208 17.208-9.492 0-17.196-7.705-17.196-17.208v-51.806h34.404z" fill="#f98228"/><path d="M443.279 120.157v271.698H68.709V120.157h355.84" style="border-width:3px;border-color:#000" fill="#fef8e2" stroke-width="6" stroke="#f7b239"/><path d="M400.9 111.414h94.193v289.185H400.9M16.906 111.414h94.181v289.185H16.906" fill="#ffe998" stroke="#f7b239" stroke-width="6"/><path fill="#ffd744" d="M16.906 120.157H46.6v271.699H16.906z"/><path d="M16.906 120.157v271.699" fill="none" stroke="#f7b239" stroke-width="6"/><path fill="#ffd744" d="M400.9 120.157h29.694v271.699H400.9z"/><path d="M81.199 17.208v51.818H46.795V17.208C46.795 7.705 54.499 0 63.991 0c9.504 0 17.208 7.705 17.208 17.208z" fill="#f98228"/><path d="M68.824.7a17.21 17.21 0 0 0-4.833-.7c-9.492 0-17.196 7.705-17.196 17.208v51.818h9.661V17.208C56.455 9.384 61.682 2.791 68.824.7z" fill="#f96328"/><path d="M465.205 17.208v51.818h-34.417V17.208C430.789 7.705 438.493 0 447.997 0s17.208 7.705 17.208 17.208z" fill="#f98228"/><path d="M452.818.7a17.21 17.21 0 0 0-4.833-.7c-9.492 0-17.196 7.705-17.196 17.208v51.818h9.661V17.208C440.449 9.384 445.676 2.791 452.818.7zM68.824 511.3c-1.535.449-3.153.7-4.833.7-9.492 0-17.196-7.705-17.196-17.208v-51.818h9.661v51.818c-.001 7.824 5.226 14.417 12.368 16.508zm383.994 0c-1.535.449-3.153.7-4.833.7-9.492 0-17.196-7.705-17.196-17.208v-51.818h9.661v51.818c-.001 7.824 5.226 14.417 12.368 16.508z" fill="#f96328"/><path d="M509.585 67.819v52.338H386.409V67.819h78.796zm-384.006 0v52.338H2.415V67.819h78.784z" fill="#f7b239" stroke-width="6" stroke="#f98228"/><path d="M25.456 69.191v49.25H4.13v-49.25h13.641zm389.63 0v49.25h-26.962v-49.25h17.246z" fill="#e09b2d"/><path d="M125.579 391.855v52.338H2.415v-52.338h108.672zm384.006 0v52.338H386.409v-52.338h108.685z" fill="#f7b239" stroke="#f98228" stroke-width="6"/><path d="M25.398 393.285v49.438H4.072v-49.438h18.817zm389.629 0v49.438h-26.961v-49.438h23.789z" fill="#e09b2d"/></svg>