<?xml version="1.0" encoding="UTF-8" standalone="no"?>
<svg
   height="79.699997"
   width="78.945152"
   fill="#ffa500"
   version="1.1"
   x="0px"
   y="0px"
   viewBox="0 0 78.945152 79.699997"
   xml:space="preserve"
   id="svg99"
   sodipodi:docname="torah-orange.svg"
   inkscape:export-filename="/Users/mradwin/Downloads/torah-orange-44.png"
   inkscape:export-xdpi="42.240002"
   inkscape:export-ydpi="42.240002"
   inkscape:version="1.1 (c4e8f9e, 2021-05-24)"
   xmlns:inkscape="http://www.inkscape.org/namespaces/inkscape"
   xmlns:sodipodi="http://sodipodi.sourceforge.net/DTD/sodipodi-0.dtd"
   xmlns="http://www.w3.org/2000/svg"
   xmlns:svg="http://www.w3.org/2000/svg"><defs
     id="defs103" /><sodipodi:namedview
     id="namedview101"
     pagecolor="#ffffff"
     bordercolor="#666666"
     borderopacity="1.0"
     inkscape:pageshadow="2"
     inkscape:pageopacity="0.0"
     inkscape:pagecheckerboard="0"
     showgrid="false"
     inkscape:zoom="6.25"
     inkscape:cx="30.72"
     inkscape:cy="42.8"
     inkscape:window-width="1383"
     inkscape:window-height="847"
     inkscape:window-x="16"
     inkscape:window-y="25"
     inkscape:window-maximized="0"
     inkscape:current-layer="svg99"
     fit-margin-top="0"
     fit-margin-left="0"
     fit-margin-right="0"
     fit-margin-bottom="0" /><style
     type="text/css"
     id="style95">
	.st0{fill:none;stroke:#ffa500;stroke-width:2;stroke-linecap:round;stroke-linejoin:round;stroke-miterlimit:10;}
</style><path
     d="m 78.1,9.2 h -5.6 v -6 C 72.5,1.4 71.1,0 69.3,0 67.5,0 66.1,1.4 66.1,3.2 v 6 h -5.6 c -0.6,0 -1,0.4 -1,1 v 6.5 c 0,0.6 0.4,1 1,1 h 0.9 v 1.5 H 17.8 v -1.5 h 0.8 c 0.6,0 1,-0.4 1,-1 v -6.5 c 0,-0.6 -0.4,-1 -1,-1 H 13 v -6 C 13,1.4 11.6,0 9.8,0 8,0 6.6,1.4 6.6,3.2 v 6 H 1 c -0.6,0 -1,0.4 -1,1 v 6.5 c 0,0.6 0.4,1 1,1 H 1.9 V 62 H 1 c -0.6,0 -1,0.4 -1,1 v 6.5 c 0,0.6 0.4,1 1,1 h 5.6 v 6 c 0,1.8 1.4,3.2 3.2,3.2 1.8,0 3.2,-1.4 3.2,-3.2 v -6 h 5.6 c 0.6,0 1,-0.4 1,-1 V 63 c 0,-0.6 -0.4,-1 -1,-1 h -0.9 v -1.7 h 43.5 v 1.6 h -0.9 c -0.6,0 -1,0.4 -1,1 v 6.5 c 0,0.6 0.4,1 1,1 h 5.6 v 6 c 0,1.8 1.4,3.2 3.2,3.2 1.8,0 3.2,-1.4 3.2,-3.2 v -6 h 5.6 c 0.6,0 1,-0.4 1,-1 v -6.5 c 0,-0.6 -0.4,-1 -1,-1 H 77.1 V 17.7 h 0.8 c 0.6,0 1,-0.4 1,-1 v -6.5 c 0.2,-0.6 -0.3,-1 -0.8,-1 z M 68,3.2 C 68,2.5 68.5,2 69.2,2 c 0.7,0 1.2,0.5 1.2,1.2 v 6 H 68 Z m -6.6,8 h 15.7 v 4.5 H 61.4 Z M 8.6,3.2 C 8.6,2.5 9.1,2 9.8,2 10.5,2 11,2.5 11,3.2 v 6 H 8.6 Z m -6.7,8 h 15.7 v 4.5 H 1.9 Z M 11,76.5 c 0,0.7 -0.5,1.2 -1.2,1.2 -0.7,0 -1.2,-0.5 -1.2,-1.2 v -6 H 11 Z m 6.6,-8.1 H 1.9 V 63.9 H 17.6 Z M 3.8,61.9 V 17.7 h 12 V 62 h -12 z m 14,-3.6 V 21.2 h 43.5 v 37.1 z m 52.6,18.2 c 0,0.7 -0.5,1.2 -1.2,1.2 -0.7,0 -1.2,-0.5 -1.2,-1.2 v -6 h 2.4 z m 6.7,-8.1 H 61.4 v -4.5 h 15.7 z m -1.9,-6.5 h -12 V 17.7 h 12 z"
     id="path97"
     inkscape:export-filename="/Users/mradwin/Downloads/torah-orange-40.png"
     inkscape:export-xdpi="48.639999"
     inkscape:export-ydpi="48.639999" /><path
     style="fill:#ffd744;fill-opacity:1;stroke-width:0.999999"
     d="m 75.2,61.9 h -12 V 17.700001 h 12 z"
     id="path153" /><path
     style="fill:#ffd744;fill-opacity:1;stroke-width:0.999999"
     d="M 3.799999,61.9 V 17.700001 h 12 v 44.299998 h -12 z"
     id="path145" /><path
     style="fill:#ffbf00;fill-opacity:1;stroke-width:0.999999"
     d="m 77.100009,68.4 h -15.7 v -4.5 h 15.7 z"
     id="path151" /><path
     style="fill:#ffbf00;fill-opacity:1;stroke-width:0.999999"
     d="m 70.400009,76.5 c 0,0.700002 -0.5,1.2 -1.2,1.2 -0.70001,0 -1.2,-0.499998 -1.2,-1.2 v -6 h 2.4 z"
     id="path149" /><path
     style="fill:#ffbf00;fill-opacity:1;stroke-width:0.999999"
     d="M 17.600006,68.4 H 1.9 v -4.5 h 15.700006 z"
     id="path143" /><path
     style="fill:#ffbf00;fill-opacity:1;stroke-width:0.999999"
     d="m 11.000006,76.5 c 0,0.700002 -0.499994,1.2 -1.2,1.2 -0.700006,0 -1.2,-0.499998 -1.2,-1.2 v -6 h 2.4 z"
     id="path141" /><path
     style="fill:#ffbf00;fill-opacity:1;stroke-width:0.999999"
     d="m 1.9,11.200001 h 15.700006 v 4.500001 H 1.9 Z"
     id="path139" /><path
     style="fill:#ffbf00;fill-opacity:1;stroke-width:0.999999"
     d="m 8.600006,3.2 c 0,-0.699999 0.499994,-1.2 1.2,-1.2 0.700006,0 1.2,0.500001 1.2,1.2 v 6 h -2.4 z"
     id="path137" /><path
     style="fill:#ffbf00;fill-opacity:1;stroke-width:0.999999"
     d="m 61.400009,11.200001 h 15.7 v 4.500001 h -15.7 z"
     id="path135" /><path
     style="fill:#ffbf00;fill-opacity:1;stroke-width:0.999999"
     d="m 68.000009,3.2 c 0,-0.699999 0.49999,-1.2 1.2,-1.2 0.7,0 1.2,0.500001 1.2,1.2 v 6 h -2.4 z"
     id="path133" /><path
     style="fill:#ffe998;fill-opacity:1;stroke-width:0.999999"
     d="M 17.8,58.3 V 21.199998 H 61.299981 V 58.3 Z"
     id="path147" /></svg>
