<?xml version="1.0" encoding="UTF-8" standalone="no"?>
<svg
   height="79.699997"
   width="78.945152"
   fill="#ffa500"
   version="1.1"
   x="0px"
   y="0px"
   viewBox="0 0 78.945152 79.699997"
   xml:space="preserve"
   id="svg99"
   sodipodi:docname="torah-orange-solid.svg"
   inkscape:export-filename="/Users/mradwin/Downloads/torah-orange-44.png"
   inkscape:export-xdpi="42.240002"
   inkscape:export-ydpi="42.240002"
   inkscape:version="1.1 (c4e8f9e, 2021-05-24)"
   xmlns:inkscape="http://www.inkscape.org/namespaces/inkscape"
   xmlns:sodipodi="http://sodipodi.sourceforge.net/DTD/sodipodi-0.dtd"
   xmlns="http://www.w3.org/2000/svg"
   xmlns:svg="http://www.w3.org/2000/svg"><defs
     id="defs103" /><sodipodi:namedview
     id="namedview101"
     pagecolor="#ffffff"
     bordercolor="#666666"
     borderopacity="1.0"
     inkscape:pageshadow="2"
     inkscape:pageopacity="0.0"
     inkscape:pagecheckerboard="0"
     showgrid="false"
     inkscape:zoom="6.25"
     inkscape:cx="48.16"
     inkscape:cy="34.48"
     inkscape:window-width="1296"
     inkscape:window-height="847"
     inkscape:window-x="182"
     inkscape:window-y="1635"
     inkscape:window-maximized="0"
     inkscape:current-layer="svg99"
     fit-margin-top="0"
     fit-margin-left="0"
     fit-margin-right="0"
     fit-margin-bottom="0" /><style
     type="text/css"
     id="style95">
	.st0{fill:none;stroke:#ffa500;stroke-width:2;stroke-linecap:round;stroke-linejoin:round;stroke-miterlimit:10;}
</style><path
     d="m 75.2,61.9 h -12 V 17.7 h 12 z"
     id="path137" /><path
     d="M 77.1,68.4 H 61.4 v -4.5 h 15.7 z"
     id="path135" /><path
     d="m 70.4,76.5 c 0,0.7 -0.5,1.2 -1.2,1.2 -0.7,0 -1.2,-0.5 -1.2,-1.2 v -6 h 2.4 z"
     id="path133" /><path
     d="M 17.8,58.3 V 21.2 h 43.5 v 37.1 z"
     id="path131" /><path
     d="M 20.81,55.542598 V 24.49 h 37.451339 v 31.052598 z"
     id="path131-5"
     style="fill:#ffffff;stroke-width:0.848889" /><path
     d="M 3.8,61.9 V 17.7 h 12 V 62 h -12 z"
     id="path129" /><path
     d="M 17.6,68.4 H 1.9 v -4.5 h 15.7 z"
     id="path127" /><path
     d="m 11,76.5 c 0,0.7 -0.5,1.2 -1.2,1.2 -0.7,0 -1.2,-0.5 -1.2,-1.2 v -6 H 11 Z"
     id="path125" /><path
     d="m 1.9,11.2 h 15.7 v 4.5 H 1.9 Z"
     id="path123" /><path
     d="M 8.6,3.2 C 8.6,2.5 9.1,2 9.8,2 10.5,2 11,2.5 11,3.2 v 6 H 8.6 Z"
     id="path121" /><path
     d="m 61.4,11.2 h 15.7 v 4.5 H 61.4 Z"
     id="path119" /><path
     d="M 68,3.2 C 68,2.5 68.5,2 69.2,2 c 0.7,0 1.2,0.5 1.2,1.2 v 6 H 68 Z"
     id="path117" /></svg>
