<?xml version="1.0" encoding="UTF-8" standalone="no"?>
<svg
   viewBox="0 0 512 512"
   style="zoom: 1;"
   xml:space="preserve"
   version="1.1"
   id="svg131"
   sodipodi:docname="torah-235339.svg"
   inkscape:version="1.1.1 (c3084ef, 2021-09-22)"
   xmlns:inkscape="http://www.inkscape.org/namespaces/inkscape"
   xmlns:sodipodi="http://sodipodi.sourceforge.net/DTD/sodipodi-0.dtd"
   xmlns="http://www.w3.org/2000/svg"
   xmlns:svg="http://www.w3.org/2000/svg"><defs
     id="defs135" /><sodipodi:namedview
     id="namedview133"
     pagecolor="#ffffff"
     bordercolor="#666666"
     borderopacity="1.0"
     inkscape:pageshadow="2"
     inkscape:pageopacity="0.0"
     inkscape:pagecheckerboard="0"
     showgrid="false"
     inkscape:zoom="3.8583845"
     inkscape:cx="211.74665"
     inkscape:cy="262.6747"
     inkscape:window-width="3755"
     inkscape:window-height="2107"
     inkscape:window-x="0"
     inkscape:window-y="25"
     inkscape:window-maximized="1"
     inkscape:current-layer="svg131" /><g
     fill="#f95428"
     id="g91"
     style="fill:#f98228;fill-opacity:1"><path
       d="M465.205 442.985v51.806c0 9.504-7.704 17.208-17.208 17.208s-17.208-7.705-17.208-17.208v-51.806h34.416M81.199 442.985v51.806c0 9.504-7.705 17.208-17.208 17.208-9.492 0-17.196-7.705-17.196-17.208v-51.806h34.404z"
       id="path89"
       style="fill:#f98228;fill-opacity:1" /></g><path
     d="M443.279,120.157 v271.698 H68.709 V120.157 H424.549 "
     style="border-width:3px;border-color:#000;stroke-width:3;stroke-miterlimit:4;stroke-dasharray:none;stroke:#f7b239;stroke-opacity:1;fill:#fef8e2;fill-opacity:1"
     fill="#e6e6e6"
     id="path93" /><g
     fill="#ffe998"
     id="g97"
     style="fill-rule:nonzero;stroke:#f7b239;stroke-opacity:1;stroke-width:3;stroke-miterlimit:4;stroke-dasharray:none"><path
       d="M400.9,111.414 h94.193 v289.185 H400.9 M16.906,111.414 h94.181 v289.185 H16.906 "
       id="path95"
       style="fill-rule:nonzero;stroke:#f7b239;stroke-opacity:1;stroke-width:3;stroke-miterlimit:4;stroke-dasharray:none" /></g><path
     fill="#ffd744"
     d="M16.906 120.157H46.6v271.699H16.906z"
     id="path99" /><path
     style="fill:none;stroke:#f7b239;stroke-width:3;stroke-linecap:butt;stroke-linejoin:miter;stroke-opacity:1;stroke-miterlimit:4;stroke-dasharray:none"
     d="m 16.906,120.157 c 0,271.699 0,271.699 0,271.699"
     id="path1386" /><path
     fill="#ffd744"
     d="M400.9 120.157h29.694v271.699H400.9z"
     id="path103" /><path
     d="M81.199 17.208v51.818H46.795V17.208C46.795 7.705 54.499 0 63.991 0c9.504 0 17.208 7.705 17.208 17.208z"
     fill="#f95428"
     id="path105"
     style="fill:#f98228;fill-opacity:1" /><path
     d="M68.824.7a17.21 17.21 0 0 0-4.833-.7c-9.492 0-17.196 7.705-17.196 17.208v51.818h9.661V17.208C56.455 9.384 61.682 2.791 68.824.7z"
     fill="#e54728"
     id="path107"
     style="fill:#f96328;fill-opacity:1" /><path
     d="M465.205 17.208v51.818h-34.417V17.208C430.789 7.705 438.493 0 447.997 0s17.208 7.705 17.208 17.208z"
     fill="#f95428"
     id="path109"
     style="fill:#f98228;fill-opacity:1" /><g
     fill="#e54728"
     id="g113"
     style="fill:#f96328;fill-opacity:1"><path
       d="M452.818.7a17.21 17.21 0 0 0-4.833-.7c-9.492 0-17.196 7.705-17.196 17.208v51.818h9.661V17.208C440.449 9.384 445.676 2.791 452.818.7zM68.824 511.3c-1.535.449-3.153.7-4.833.7-9.492 0-17.196-7.705-17.196-17.208v-51.818h9.661v51.818c-.001 7.824 5.226 14.417 12.368 16.508zM452.818 511.3c-1.535.449-3.153.7-4.833.7-9.492 0-17.196-7.705-17.196-17.208v-51.818h9.661v51.818c-.001 7.824 5.226 14.417 12.368 16.508z"
       id="path111"
       style="fill:#f96328;fill-opacity:1" /></g><g
     fill="#f7b239"
     id="g117"
     style="stroke-width:3;stroke-miterlimit:4;stroke-dasharray:none;stroke:#f98228;stroke-opacity:1"><path
       d="M509.585 67.819v52.338H386.409V67.819H465.205zM125.579 67.819v52.338H2.415V67.819h78.784z"
       id="path115"
       style="stroke-width:3;stroke-miterlimit:4;stroke-dasharray:none;stroke:#f98228;stroke-opacity:1" /></g><g
     fill="#e09b2d"
     id="g121"
     transform="matrix(1,0,0,0.94101339,1.7151341,5.3725206)"><path
       d="m 23.741,67.819 v 52.338 H 2.415 V 67.819 h 13.641 z m 389.629,0 v 52.338 H 386.409 V 67.819 h 17.246 z"
       id="path119" /></g><path
     d="m 125.579,391.855 v 52.338 H 2.415 v -52.338 h 108.672 z m 384.006,0 v 52.338 H 386.409 v -52.338 h 108.685 z"
     id="path123"
     style="fill:#f7b239;stroke:#f98228;stroke-opacity:1;stroke-width:3;stroke-miterlimit:4;stroke-dasharray:none" /><g
     fill="#e09b2d"
     id="g129"
     transform="matrix(1,0,0,0.94459418,1.6569732,23.141318)"><path
       d="m 23.741,391.855 v 52.338 H 2.415 v -52.338 h 18.817 z m 389.629,0 v 52.338 h -26.961 v -52.338 h 23.789 z"
       id="path127" /></g></svg>
